<svg width="0" height="0" class="hidden">
  <symbol fill="none" xmlns="http://www.w3.org/2000/svg" viewBox="0 0 24 24" id="accept">
    <path d="M14.72 8.79L10.43 13.09L8.78 11.44C8.69036 11.3353 8.58004 11.2503 8.45597 11.1903C8.33191 11.1303 8.19678 11.0965 8.05906 11.0912C7.92134 11.0859 7.78401 11.1091 7.65568 11.1594C7.52736 11.2096 7.41081 11.2859 7.31335 11.3833C7.2159 11.4808 7.13964 11.5974 7.08937 11.7257C7.03909 11.854 7.01589 11.9913 7.02121 12.1291C7.02653 12.2668 7.06026 12.4019 7.12028 12.526C7.1803 12.65 7.26532 12.7604 7.37 12.85L9.72 15.21C9.81344 15.3027 9.92426 15.376 10.0461 15.4258C10.1679 15.4755 10.2984 15.5008 10.43 15.5C10.6923 15.4989 10.9437 15.3947 11.13 15.21L16.13 10.21C16.2237 10.117 16.2981 10.0064 16.3489 9.88458C16.3997 9.76272 16.4258 9.63201 16.4258 9.5C16.4258 9.36799 16.3997 9.23728 16.3489 9.11542C16.2981 8.99356 16.2237 8.88296 16.13 8.79C15.9426 8.60375 15.6892 8.49921 15.425 8.49921C15.1608 8.49921 14.9074 8.60375 14.72 8.79V8.79ZM12 2C10.0222 2 8.08879 2.58649 6.4443 3.6853C4.79981 4.78412 3.51809 6.3459 2.76121 8.17317C2.00433 10.0004 1.8063 12.0111 2.19215 13.9509C2.578 15.8907 3.53041 17.6725 4.92894 19.0711C6.32746 20.4696 8.10929 21.422 10.0491 21.8079C11.9889 22.1937 13.9996 21.9957 15.8268 21.2388C17.6541 20.4819 19.2159 19.2002 20.3147 17.5557C21.4135 15.9112 22 13.9778 22 12C22 10.6868 21.7413 9.38642 21.2388 8.17317C20.7363 6.95991 19.9997 5.85752 19.0711 4.92893C18.1425 4.00035 17.0401 3.26375 15.8268 2.7612C14.6136 2.25866 13.3132 2 12 2V2ZM12 20C10.4178 20 8.87104 19.5308 7.55544 18.6518C6.23985 17.7727 5.21447 16.5233 4.60897 15.0615C4.00347 13.5997 3.84504 11.9911 4.15372 10.4393C4.4624 8.88743 5.22433 7.46197 6.34315 6.34315C7.46197 5.22433 8.88743 4.4624 10.4393 4.15372C11.9911 3.84504 13.5997 4.00346 15.0615 4.60896C16.5233 5.21447 17.7727 6.23984 18.6518 7.55544C19.5308 8.87103 20 10.4177 20 12C20 14.1217 19.1572 16.1566 17.6569 17.6569C16.1566 19.1571 14.1217 20 12 20V20Z" fill="currentColor"></path>
  </symbol>
  <symbol fill="none" xmlns="http://www.w3.org/2000/svg" viewBox="0 0 24 24" id="add">
    <path d="M19 11H13V5C13 4.73478 12.8946 4.48043 12.7071 4.29289C12.5196 4.10536 12.2652 4 12 4C11.7348 4 11.4804 4.10536 11.2929 4.29289C11.1054 4.48043 11 4.73478 11 5V11H5C4.73478 11 4.48043 11.1054 4.29289 11.2929C4.10536 11.4804 4 11.7348 4 12C4 12.2652 4.10536 12.5196 4.29289 12.7071C4.48043 12.8946 4.73478 13 5 13H11V19C11 19.2652 11.1054 19.5196 11.2929 19.7071C11.4804 19.8946 11.7348 20 12 20C12.2652 20 12.5196 19.8946 12.7071 19.7071C12.8946 19.5196 13 19.2652 13 19V13H19C19.2652 13 19.5196 12.8946 19.7071 12.7071C19.8946 12.5196 20 12.2652 20 12C20 11.7348 19.8946 11.4804 19.7071 11.2929C19.5196 11.1054 19.2652 11 19 11Z" fill="currentColor"></path>
  </symbol>
  <symbol fill="none" xmlns="http://www.w3.org/2000/svg" viewBox="0 0 24 24" id="angle-down">
    <path d="M17 9.17C16.8126 8.98375 16.5592 8.87921 16.295 8.87921C16.0308 8.87921 15.7774 8.98375 15.59 9.17L12 12.71L8.46001 9.17C8.27265 8.98375 8.0192 8.87921 7.75501 8.87921C7.49082 8.87921 7.23737 8.98375 7.05001 9.17C6.95628 9.26297 6.88189 9.37357 6.83112 9.49543C6.78035 9.61729 6.75421 9.74799 6.75421 9.88C6.75421 10.012 6.78035 10.1427 6.83112 10.2646C6.88189 10.3864 6.95628 10.497 7.05001 10.59L11.29 14.83C11.383 14.9237 11.4936 14.9981 11.6154 15.0489C11.7373 15.0997 11.868 15.1258 12 15.1258C12.132 15.1258 12.2627 15.0997 12.3846 15.0489C12.5064 14.9981 12.617 14.9237 12.71 14.83L17 10.59C17.0937 10.497 17.1681 10.3864 17.2189 10.2646C17.2697 10.1427 17.2958 10.012 17.2958 9.88C17.2958 9.74799 17.2697 9.61729 17.2189 9.49543C17.1681 9.37357 17.0937 9.26297 17 9.17Z" fill="currentColor"></path>
  </symbol>
  <symbol fill="none" xmlns="http://www.w3.org/2000/svg" viewBox="0 0 24 24" id="angle-up">
    <path d="M17 13.41L12.71 9.17C12.617 9.07628 12.5064 9.00188 12.3846 8.95111C12.2627 8.90035 12.132 8.87421 12 8.87421C11.868 8.87421 11.7373 8.90035 11.6154 8.95111C11.4936 9.00188 11.383 9.07628 11.29 9.17L7.05001 13.41C6.95628 13.503 6.88189 13.6136 6.83112 13.7354C6.78035 13.8573 6.75421 13.988 6.75421 14.12C6.75421 14.252 6.78035 14.3827 6.83112 14.5046C6.88189 14.6264 6.95628 14.737 7.05001 14.83C7.23737 15.0163 7.49082 15.1208 7.75501 15.1208C8.0192 15.1208 8.27265 15.0163 8.46001 14.83L12 11.29L15.54 14.83C15.7263 15.0147 15.9777 15.1189 16.24 15.12C16.3716 15.1208 16.5021 15.0955 16.6239 15.0458C16.7458 14.996 16.8566 14.9227 16.95 14.83C17.0471 14.7404 17.1254 14.6324 17.1805 14.5123C17.2357 14.3923 17.2664 14.2625 17.2711 14.1304C17.2757 13.9984 17.2542 13.8667 17.2076 13.7431C17.1611 13.6194 17.0905 13.5062 17 13.41V13.41Z" fill="currentColor"></path>
  </symbol>
  <symbol fill="none" xmlns="http://www.w3.org/2000/svg" viewBox="0 0 24 24" id="decline">
    <path d="M15.71 8.29C15.6171 8.19627 15.5065 8.12188 15.3846 8.07111C15.2627 8.02034 15.132 7.9942 15 7.9942C14.868 7.9942 14.7373 8.02034 14.6154 8.07111C14.4936 8.12188 14.383 8.19627 14.29 8.29L12 10.59L9.71002 8.29C9.52171 8.1017 9.26632 7.99591 9.00002 7.99591C8.73372 7.99591 8.47832 8.1017 8.29002 8.29C8.10171 8.47831 7.99593 8.7337 7.99593 9C7.99593 9.2663 8.10171 9.5217 8.29002 9.71L10.59 12L8.29002 14.29C8.19629 14.383 8.1219 14.4936 8.07113 14.6154C8.02036 14.7373 7.99422 14.868 7.99422 15C7.99422 15.132 8.02036 15.2627 8.07113 15.3846C8.1219 15.5064 8.19629 15.617 8.29002 15.71C8.38298 15.8037 8.49358 15.8781 8.61544 15.9289C8.7373 15.9797 8.86801 16.0058 9.00002 16.0058C9.13203 16.0058 9.26274 15.9797 9.38459 15.9289C9.50645 15.8781 9.61706 15.8037 9.71002 15.71L12 13.41L14.29 15.71C14.383 15.8037 14.4936 15.8781 14.6154 15.9289C14.7373 15.9797 14.868 16.0058 15 16.0058C15.132 16.0058 15.2627 15.9797 15.3846 15.9289C15.5065 15.8781 15.6171 15.8037 15.71 15.71C15.8037 15.617 15.8781 15.5064 15.9289 15.3846C15.9797 15.2627 16.0058 15.132 16.0058 15C16.0058 14.868 15.9797 14.7373 15.9289 14.6154C15.8781 14.4936 15.8037 14.383 15.71 14.29L13.41 12L15.71 9.71C15.8037 9.61704 15.8781 9.50644 15.9289 9.38458C15.9797 9.26272 16.0058 9.13201 16.0058 9C16.0058 8.86799 15.9797 8.73729 15.9289 8.61543C15.8781 8.49357 15.8037 8.38297 15.71 8.29V8.29ZM19.07 4.93C18.1476 3.9749 17.0441 3.21308 15.8241 2.68899C14.604 2.1649 13.2918 1.88904 11.964 1.8775C10.6362 1.86596 9.31944 2.11898 8.09048 2.62179C6.86151 3.1246 5.745 3.86713 4.80607 4.80605C3.86714 5.74498 3.12461 6.8615 2.6218 8.09046C2.11899 9.31943 1.86598 10.6362 1.87751 11.964C1.88905 13.2918 2.16491 14.604 2.689 15.824C3.21309 17.0441 3.97492 18.1475 4.93002 19.07C5.85249 20.0251 6.95593 20.7869 8.17597 21.311C9.39601 21.8351 10.7082 22.111 12.036 22.1225C13.3638 22.134 14.6806 21.881 15.9096 21.3782C17.1385 20.8754 18.255 20.1329 19.194 19.194C20.1329 18.255 20.8754 17.1385 21.3782 15.9095C21.881 14.6806 22.1341 13.3638 22.1225 12.036C22.111 10.7082 21.8351 9.396 21.311 8.17596C20.7869 6.95592 20.0251 5.85247 19.07 4.93V4.93ZM17.66 17.66C16.3521 18.9694 14.6306 19.7848 12.7888 19.9673C10.9471 20.1498 9.09902 19.6881 7.55954 18.6608C6.02006 17.6335 4.88438 16.1042 4.34599 14.3335C3.80761 12.5628 3.89982 10.6601 4.60693 8.94979C5.31404 7.23943 6.59229 5.82715 8.22391 4.95356C9.85553 4.07998 11.7396 3.79913 13.555 4.15888C15.3705 4.51862 17.0051 5.49669 18.1803 6.92646C19.3555 8.35623 19.9986 10.1492 20 12C20.0036 13.0513 19.7986 14.0928 19.3969 15.0644C18.9953 16.0359 18.4049 16.9182 17.66 17.66V17.66Z" fill="currentColor"></path>
  </symbol>
  <symbol fill="none" xmlns="http://www.w3.org/2000/svg" viewBox="0 0 24 24" id="delete">
    <path d="M10 18C10.2652 18 10.5196 17.8946 10.7071 17.7071C10.8946 17.5196 11 17.2652 11 17V11C11 10.7348 10.8946 10.4804 10.7071 10.2929C10.5196 10.1054 10.2652 10 10 10C9.73478 10 9.48043 10.1054 9.29289 10.2929C9.10536 10.4804 9 10.7348 9 11V17C9 17.2652 9.10536 17.5196 9.29289 17.7071C9.48043 17.8946 9.73478 18 10 18ZM20 6H16V5C16 4.20435 15.6839 3.44129 15.1213 2.87868C14.5587 2.31607 13.7956 2 13 2H11C10.2044 2 9.44129 2.31607 8.87868 2.87868C8.31607 3.44129 8 4.20435 8 5V6H4C3.73478 6 3.48043 6.10536 3.29289 6.29289C3.10536 6.48043 3 6.73478 3 7C3 7.26522 3.10536 7.51957 3.29289 7.70711C3.48043 7.89464 3.73478 8 4 8H5V19C5 19.7956 5.31607 20.5587 5.87868 21.1213C6.44129 21.6839 7.20435 22 8 22H16C16.7956 22 17.5587 21.6839 18.1213 21.1213C18.6839 20.5587 19 19.7956 19 19V8H20C20.2652 8 20.5196 7.89464 20.7071 7.70711C20.8946 7.51957 21 7.26522 21 7C21 6.73478 20.8946 6.48043 20.7071 6.29289C20.5196 6.10536 20.2652 6 20 6ZM10 5C10 4.73478 10.1054 4.48043 10.2929 4.29289C10.4804 4.10536 10.7348 4 11 4H13C13.2652 4 13.5196 4.10536 13.7071 4.29289C13.8946 4.48043 14 4.73478 14 5V6H10V5ZM17 19C17 19.2652 16.8946 19.5196 16.7071 19.7071C16.5196 19.8946 16.2652 20 16 20H8C7.73478 20 7.48043 19.8946 7.29289 19.7071C7.10536 19.5196 7 19.2652 7 19V8H17V19ZM14 18C14.2652 18 14.5196 17.8946 14.7071 17.7071C14.8946 17.5196 15 17.2652 15 17V11C15 10.7348 14.8946 10.4804 14.7071 10.2929C14.5196 10.1054 14.2652 10 14 10C13.7348 10 13.4804 10.1054 13.2929 10.2929C13.1054 10.4804 13 10.7348 13 11V17C13 17.2652 13.1054 17.5196 13.2929 17.7071C13.4804 17.8946 13.7348 18 14 18Z" fill="currentColor"></path>
  </symbol>
  <symbol fill="none" xmlns="http://www.w3.org/2000/svg" viewBox="0 0 24 24" id="download">
    <path d="M8.29 13.29C8.19627 13.383 8.12188 13.4936 8.07111 13.6154C8.02034 13.7373 7.9942 13.868 7.9942 14C7.9942 14.132 8.02034 14.2627 8.07111 14.3846C8.12188 14.5064 8.19627 14.617 8.29 14.71L11.29 17.71C11.383 17.8037 11.4936 17.8781 11.6154 17.9289C11.7373 17.9797 11.868 18.0058 12 18.0058C12.132 18.0058 12.2627 17.9797 12.3846 17.9289C12.5064 17.8781 12.617 17.8037 12.71 17.71L15.71 14.71C15.8983 14.5217 16.0041 14.2663 16.0041 14C16.0041 13.7337 15.8983 13.4783 15.71 13.29C15.5217 13.1017 15.2663 12.9959 15 12.9959C14.7337 12.9959 14.4783 13.1017 14.29 13.29L13 14.59V3C13 2.73478 12.8946 2.48043 12.7071 2.29289C12.5196 2.10536 12.2652 2 12 2C11.7348 2 11.4804 2.10536 11.2929 2.29289C11.1054 2.48043 11 2.73478 11 3V14.59L9.71 13.29C9.61704 13.1963 9.50644 13.1219 9.38458 13.0711C9.26272 13.0203 9.13201 12.9942 9 12.9942C8.86799 12.9942 8.73728 13.0203 8.61542 13.0711C8.49356 13.1219 8.38296 13.1963 8.29 13.29V13.29ZM18 9H16C15.7348 9 15.4804 9.10536 15.2929 9.29289C15.1054 9.48043 15 9.73478 15 10C15 10.2652 15.1054 10.5196 15.2929 10.7071C15.4804 10.8946 15.7348 11 16 11H18C18.2652 11 18.5196 11.1054 18.7071 11.2929C18.8946 11.4804 19 11.7348 19 12V19C19 19.2652 18.8946 19.5196 18.7071 19.7071C18.5196 19.8946 18.2652 20 18 20H6C5.73478 20 5.48043 19.8946 5.29289 19.7071C5.10536 19.5196 5 19.2652 5 19V12C5 11.7348 5.10536 11.4804 5.29289 11.2929C5.48043 11.1054 5.73478 11 6 11H8C8.26522 11 8.51957 10.8946 8.70711 10.7071C8.89464 10.5196 9 10.2652 9 10C9 9.73478 8.89464 9.48043 8.70711 9.29289C8.51957 9.10536 8.26522 9 8 9H6C5.20435 9 4.44129 9.31607 3.87868 9.87868C3.31607 10.4413 3 11.2044 3 12V19C3 19.7956 3.31607 20.5587 3.87868 21.1213C4.44129 21.6839 5.20435 22 6 22H18C18.7956 22 19.5587 21.6839 20.1213 21.1213C20.6839 20.5587 21 19.7956 21 19V12C21 11.2044 20.6839 10.4413 20.1213 9.87868C19.5587 9.31607 18.7956 9 18 9Z" fill="currentColor"></path>
  </symbol>
  <symbol fill="none" xmlns="http://www.w3.org/2000/svg" viewBox="0 0 24 24" id="edit">
    <path d="M5 18H9.24C9.37161 18.0008 9.50207 17.9755 9.62391 17.9258C9.74574 17.876 9.85656 17.8027 9.95 17.71L16.87 10.78L19.71 8C19.8037 7.90704 19.8781 7.79644 19.9289 7.67458C19.9797 7.55272 20.0058 7.42201 20.0058 7.29C20.0058 7.15799 19.9797 7.02728 19.9289 6.90542C19.8781 6.78356 19.8037 6.67296 19.71 6.58L15.47 2.29C15.377 2.19627 15.2664 2.12188 15.1446 2.07111C15.0227 2.02034 14.892 1.9942 14.76 1.9942C14.628 1.9942 14.4973 2.02034 14.3754 2.07111C14.2536 2.12188 14.143 2.19627 14.05 2.29L11.23 5.12L4.29 12.05C4.19732 12.1434 4.12399 12.2543 4.07423 12.3761C4.02446 12.4979 3.99924 12.6284 4 12.76V17C4 17.2652 4.10536 17.5196 4.29289 17.7071C4.48043 17.8946 4.73478 18 5 18ZM14.76 4.41L17.59 7.24L16.17 8.66L13.34 5.83L14.76 4.41ZM6 13.17L11.93 7.24L14.76 10.07L8.83 16H6V13.17ZM21 20H3C2.73478 20 2.48043 20.1054 2.29289 20.2929C2.10536 20.4804 2 20.7348 2 21C2 21.2652 2.10536 21.5196 2.29289 21.7071C2.48043 21.8946 2.73478 22 3 22H21C21.2652 22 21.5196 21.8946 21.7071 21.7071C21.8946 21.5196 22 21.2652 22 21C22 20.7348 21.8946 20.4804 21.7071 20.2929C21.5196 20.1054 21.2652 20 21 20Z" fill="currentColor"></path>
  </symbol>
  <symbol fill="none" xmlns="http://www.w3.org/2000/svg" viewBox="0 0 24 24" id="location">
    <path d="M15 3.48C13.4087 1.8887 11.2504 0.99472 8.99999 0.99472C6.74955 0.99472 4.59129 1.8887 2.99999 3.48C1.40869 5.0713 0.514709 7.22957 0.514709 9.48C0.514709 11.7304 1.40869 13.8887 2.99999 15.48L8.26999 20.76C8.36295 20.8537 8.47355 20.9281 8.59541 20.9789C8.71727 21.0297 8.84798 21.0558 8.97999 21.0558C9.112 21.0558 9.24271 21.0297 9.36457 20.9789C9.48643 20.9281 9.59703 20.8537 9.68999 20.76L15 15.43C16.5846 13.8453 17.4749 11.6961 17.4749 9.455C17.4749 7.21395 16.5846 5.06468 15 3.48ZM10.69 11.09C10.311 11.4747 9.8102 11.7159 9.27312 11.7723C8.73603 11.8286 8.19605 11.6966 7.7455 11.3989C7.29494 11.1012 6.96179 10.6562 6.803 10.1401C6.64421 9.62393 6.66964 9.06864 6.87495 8.56916C7.08026 8.06967 7.45269 7.65702 7.92858 7.40174C8.40446 7.14646 8.95424 7.06441 9.48393 7.16962C10.0136 7.27483 10.4903 7.56076 10.8325 7.97853C11.1747 8.3963 11.3612 8.91997 11.36 9.46C11.3454 10.0773 11.1365 10.6635 10.69 11.09Z" fill="currentColor"/>
  </symbol>
  <symbol fill="none" xmlns="http://www.w3.org/2000/svg" viewBox="0 0 24 24" id="reset">
    <path d="M21 11C20.7348 11 20.4804 11.1054 20.2929 11.2929C20.1054 11.4804 20 11.7348 20 12C20.0119 13.873 19.3703 15.6916 18.1857 17.1425C17.001 18.5933 15.3475 19.5857 13.51 19.9486C11.6724 20.3115 9.76578 20.0223 8.11851 19.1308C6.47123 18.2392 5.18641 16.8012 4.48533 15.0643C3.78424 13.3273 3.71079 11.4003 4.27762 9.61508C4.84445 7.82984 6.01607 6.29813 7.5907 5.28378C9.16533 4.26942 11.0444 3.83591 12.9043 4.05791C14.7641 4.27991 16.4884 5.14352 17.78 6.5H15.38C15.1148 6.5 14.8604 6.60536 14.6729 6.79289C14.4854 6.98043 14.38 7.23478 14.38 7.5C14.38 7.76522 14.4854 8.01957 14.6729 8.20711C14.8604 8.39464 15.1148 8.5 15.38 8.5H19.91C20.1752 8.5 20.4296 8.39464 20.6171 8.20711C20.8046 8.01957 20.91 7.76522 20.91 7.5V3C20.91 2.73478 20.8046 2.48043 20.6171 2.29289C20.4296 2.10536 20.1752 2 19.91 2C19.6448 2 19.3904 2.10536 19.2029 2.29289C19.0154 2.48043 18.91 2.73478 18.91 3V4.77C17.2447 3.17806 15.0808 2.20995 12.784 2.02933C10.4873 1.84871 8.19863 2.46664 6.30492 3.77869C4.41121 5.09074 3.02861 7.01641 2.39083 9.23019C1.75305 11.444 1.89921 13.8101 2.80461 15.9285C3.71001 18.047 5.31911 19.7878 7.3599 20.8568C9.40069 21.9258 11.748 22.2574 14.005 21.7955C16.2621 21.3336 18.2904 20.1065 19.7471 18.3217C21.2039 16.5369 21.9997 14.3038 22 12C22 11.7348 21.8946 11.4804 21.7071 11.2929C21.5196 11.1054 21.2652 11 21 11Z" fill="currentColor"></path>
  </symbol>
  <symbol fill="none" xmlns="http://www.w3.org/2000/svg" viewBox="0 0 24 24" id="spinner">
    <path d="M6.804 15C6.67139 14.7703 6.45297 14.6027 6.1968 14.5341C5.94063 14.4655 5.66768 14.5014 5.438 14.634L3.706 15.634C3.47819 15.7676 3.31246 15.9858 3.24496 16.2411C3.17747 16.4964 3.21369 16.768 3.34573 16.9967C3.47776 17.2254 3.69489 17.3926 3.94974 17.4617C4.20458 17.5309 4.47644 17.4965 4.706 17.366L6.438 16.366C6.66767 16.2334 6.83526 16.015 6.9039 15.7588C6.97254 15.5026 6.9366 15.2297 6.804 15ZM3.706 8.366L5.438 9.366C5.55177 9.4327 5.67761 9.47623 5.80827 9.4941C5.93894 9.51196 6.07185 9.50381 6.19935 9.4701C6.32685 9.43639 6.44642 9.3778 6.55118 9.29769C6.65594 9.21758 6.74382 9.11754 6.80976 9.00333C6.8757 8.88912 6.9184 8.76299 6.9354 8.63221C6.9524 8.50143 6.94336 8.36858 6.90881 8.24131C6.87426 8.11403 6.81487 7.99485 6.73407 7.89063C6.65327 7.7864 6.55265 7.69918 6.438 7.634L4.706 6.634C4.47644 6.50348 4.20458 6.46906 3.94974 6.53825C3.69489 6.60744 3.47776 6.77462 3.34573 7.00331C3.21369 7.23199 3.17747 7.50362 3.24496 7.75892C3.31246 8.01421 3.47819 8.23245 3.706 8.366V8.366ZM6 12C6 11.7348 5.89464 11.4804 5.70711 11.2929C5.51957 11.1054 5.26522 11 5 11H3C2.73478 11 2.48043 11.1054 2.29289 11.2929C2.10536 11.4804 2 11.7348 2 12C2 12.2652 2.10536 12.5196 2.29289 12.7071C2.48043 12.8946 2.73478 13 3 13H5C5.26522 13 5.51957 12.8946 5.70711 12.7071C5.89464 12.5196 6 12.2652 6 12ZM17.196 9C17.3286 9.22967 17.547 9.39726 17.8032 9.4659C18.0594 9.53454 18.3323 9.4986 18.562 9.366L20.294 8.366C20.4086 8.30082 20.5093 8.2136 20.5901 8.10937C20.6709 8.00515 20.7303 7.88597 20.7648 7.75869C20.7994 7.63142 20.8084 7.49857 20.7914 7.36779C20.7744 7.23701 20.7317 7.11088 20.6658 6.99667C20.5998 6.88246 20.5119 6.78242 20.4072 6.70231C20.3024 6.62221 20.1828 6.56361 20.0553 6.5299C19.9278 6.49619 19.7949 6.48804 19.6643 6.5059C19.5336 6.52377 19.4078 6.5673 19.294 6.634L17.562 7.634C17.3323 7.76661 17.1647 7.98503 17.0961 8.2412C17.0275 8.49737 17.0634 8.77032 17.196 9V9ZM15 6.804C15.2297 6.9366 15.5026 6.97254 15.7588 6.9039C16.015 6.83526 16.2334 6.66767 16.366 6.438L17.366 4.706C17.4327 4.59223 17.4762 4.46639 17.4941 4.33572C17.512 4.20506 17.5038 4.07215 17.4701 3.94465C17.4364 3.81715 17.3778 3.69758 17.2977 3.59282C17.2176 3.48806 17.1175 3.40018 17.0033 3.33424C16.8891 3.26829 16.763 3.2256 16.6322 3.2086C16.5014 3.1916 16.3686 3.20064 16.2413 3.23519C16.114 3.26974 15.9949 3.32913 15.8906 3.40993C15.7864 3.49073 15.6992 3.59135 15.634 3.706L14.634 5.438C14.5014 5.66768 14.4655 5.94063 14.5341 6.1968C14.6027 6.45297 14.7703 6.67139 15 6.804ZM20.294 15.634L18.562 14.634C18.4482 14.5673 18.3224 14.5238 18.1917 14.5059C18.0611 14.488 17.9282 14.4962 17.8007 14.5299C17.6732 14.5636 17.5536 14.6222 17.4488 14.7023C17.3441 14.7824 17.2562 14.8825 17.1902 14.9967C17.1243 15.1109 17.0816 15.237 17.0646 15.3678C17.0476 15.4986 17.0566 15.6314 17.0912 15.7587C17.1257 15.886 17.1851 16.0051 17.2659 16.1094C17.3467 16.2136 17.4474 16.3008 17.562 16.366L19.294 17.366C19.5236 17.4965 19.7954 17.5309 20.0503 17.4617C20.3051 17.3926 20.5222 17.2254 20.6543 16.9967C20.7863 16.768 20.8225 16.4964 20.755 16.2411C20.6875 15.9858 20.5218 15.7676 20.294 15.634ZM16.366 17.562C16.3008 17.4474 16.2136 17.3467 16.1094 17.2659C16.0051 17.1851 15.886 17.1257 15.7587 17.0912C15.6314 17.0566 15.4986 17.0476 15.3678 17.0646C15.237 17.0816 15.1109 17.1243 14.9967 17.1902C14.8825 17.2562 14.7824 17.3441 14.7023 17.4488C14.6222 17.5536 14.5636 17.6732 14.5299 17.8007C14.4962 17.9282 14.488 18.0611 14.5059 18.1917C14.5238 18.3224 14.5673 18.4482 14.634 18.562L15.634 20.294C15.6992 20.4086 15.7864 20.5093 15.8906 20.5901C15.9949 20.6709 16.114 20.7303 16.2413 20.7648C16.3686 20.7994 16.5014 20.8084 16.6322 20.7914C16.763 20.7744 16.8891 20.7317 17.0033 20.6658C17.1175 20.5998 17.2176 20.5119 17.2977 20.4072C17.3778 20.3024 17.4364 20.1828 17.4701 20.0553C17.5038 19.9278 17.512 19.7949 17.4941 19.6643C17.4762 19.5336 17.4327 19.4078 17.366 19.294L16.366 17.562ZM21 11H19C18.7348 11 18.4804 11.1054 18.2929 11.2929C18.1054 11.4804 18 11.7348 18 12C18 12.2652 18.1054 12.5196 18.2929 12.7071C18.4804 12.8946 18.7348 13 19 13H21C21.2652 13 21.5196 12.8946 21.7071 12.7071C21.8946 12.5196 22 12.2652 22 12C22 11.7348 21.8946 11.4804 21.7071 11.2929C21.5196 11.1054 21.2652 11 21 11ZM12 18C11.7348 18 11.4804 18.1054 11.2929 18.2929C11.1054 18.4804 11 18.7348 11 19V21C11 21.2652 11.1054 21.5196 11.2929 21.7071C11.4804 21.8946 11.7348 22 12 22C12.2652 22 12.5196 21.8946 12.7071 21.7071C12.8946 21.5196 13 21.2652 13 21V19C13 18.7348 12.8946 18.4804 12.7071 18.2929C12.5196 18.1054 12.2652 18 12 18ZM9 17.196C8.77032 17.0634 8.49737 17.0275 8.2412 17.0961C7.98503 17.1647 7.76661 17.3323 7.634 17.562L6.634 19.294C6.50348 19.5236 6.46906 19.7954 6.53825 20.0503C6.60744 20.3051 6.77462 20.5222 7.00331 20.6543C7.23199 20.7863 7.50362 20.8225 7.75892 20.755C8.01421 20.6875 8.23245 20.5218 8.366 20.294L9.366 18.562C9.4986 18.3323 9.53454 18.0594 9.4659 17.8032C9.39726 17.547 9.22967 17.3286 9 17.196ZM12 2C11.7348 2 11.4804 2.10536 11.2929 2.29289C11.1054 2.48043 11 2.73478 11 3V5C11 5.26522 11.1054 5.51957 11.2929 5.70711C11.4804 5.89464 11.7348 6 12 6C12.2652 6 12.5196 5.89464 12.7071 5.70711C12.8946 5.51957 13 5.26522 13 5V3C13 2.73478 12.8946 2.48043 12.7071 2.29289C12.5196 2.10536 12.2652 2 12 2V2Z" fill="currentColor"/>
  </symbol>
  <symbol fill="none" xmlns="http://www.w3.org/2000/svg" viewBox="0 0 24 24" id="alert">
    <path d="M12 14C11.7528 14 11.5111 14.0733 11.3055 14.2107C11.1 14.348 10.9398 14.5432 10.8452 14.7716C10.7505 15.0001 10.7258 15.2514 10.774 15.4939C10.8223 15.7363 10.9413 15.9591 11.1161 16.1339C11.2909 16.3087 11.5137 16.4277 11.7561 16.476C11.9986 16.5242 12.25 16.4995 12.4784 16.4049C12.7068 16.3102 12.902 16.15 13.0393 15.9445C13.1767 15.7389 13.25 15.4972 13.25 15.25C13.25 14.9185 13.1183 14.6005 12.8839 14.3661C12.6495 14.1317 12.3315 14 12 14V14ZM12 12.5C12.2652 12.5 12.5196 12.3946 12.7071 12.2071C12.8946 12.0196 13 11.7652 13 11.5V8.5C13 8.23478 12.8946 7.98043 12.7071 7.79289C12.5196 7.60536 12.2652 7.5 12 7.5C11.7348 7.5 11.4804 7.60536 11.2929 7.79289C11.1054 7.98043 11 8.23478 11 8.5V11.5C11 11.7652 11.1054 12.0196 11.2929 12.2071C11.4804 12.3946 11.7348 12.5 12 12.5ZM12 2C10.0222 2 8.08879 2.58649 6.4443 3.6853C4.79981 4.78412 3.51809 6.3459 2.76121 8.17317C2.00433 10.0004 1.8063 12.0111 2.19215 13.9509C2.578 15.8907 3.53041 17.6725 4.92894 19.0711C6.32746 20.4696 8.10929 21.422 10.0491 21.8079C11.9889 22.1937 13.9996 21.9957 15.8268 21.2388C17.6541 20.4819 19.2159 19.2002 20.3147 17.5557C21.4135 15.9112 22 13.9778 22 12C21.9971 9.34873 20.9426 6.80688 19.0679 4.93215C17.1931 3.05742 14.6513 2.00291 12 2V2ZM12 20C10.4178 20 8.87104 19.5308 7.55544 18.6518C6.23985 17.7727 5.21447 16.5233 4.60897 15.0615C4.00347 13.5997 3.84504 11.9911 4.15372 10.4393C4.4624 8.88743 5.22433 7.46197 6.34315 6.34315C7.46197 5.22433 8.88743 4.4624 10.4393 4.15372C11.9911 3.84504 13.5997 4.00346 15.0615 4.60896C16.5233 5.21447 17.7727 6.23984 18.6518 7.55544C19.5308 8.87103 20 10.4177 20 12C19.9974 14.1209 19.1537 16.1542 17.6539 17.6539C16.1542 19.1536 14.1209 19.9974 12 20Z" fill="currentColor"/>
  </symbol>
</svg>