<svg width="0" height="0" class="hidden">
  <symbol fill="none" xmlns="http://www.w3.org/2000/svg" viewBox="0 0 24 24" id="01d">
    <path d="M5.64 17L4.93 17.71C4.74375 17.8974 4.63921 18.1508 4.63921 18.415C4.63921 18.6792 4.74375 18.9326 4.93 19.12C5.11736 19.3063 5.37081 19.4108 5.635 19.4108C5.89919 19.4108 6.15264 19.3063 6.34 19.12L7.05 18.41C7.21383 18.2187 7.29943 17.9726 7.28971 17.7209C7.27999 17.4693 7.17566 17.2305 6.99756 17.0524C6.81947 16.8743 6.58073 16.77 6.32905 16.7603C6.07738 16.7506 5.8313 16.8362 5.64 17ZM5 12C5 11.7348 4.89464 11.4804 4.70711 11.2929C4.51957 11.1054 4.26522 11 4 11H3C2.73478 11 2.48043 11.1054 2.29289 11.2929C2.10536 11.4804 2 11.7348 2 12C2 12.2652 2.10536 12.5196 2.29289 12.7071C2.48043 12.8946 2.73478 13 3 13H4C4.26522 13 4.51957 12.8946 4.70711 12.7071C4.89464 12.5196 5 12.2652 5 12ZM12 5C12.2652 5 12.5196 4.89464 12.7071 4.70711C12.8946 4.51957 13 4.26522 13 4V3C13 2.73478 12.8946 2.48043 12.7071 2.29289C12.5196 2.10536 12.2652 2 12 2C11.7348 2 11.4804 2.10536 11.2929 2.29289C11.1054 2.48043 11 2.73478 11 3V4C11 4.26522 11.1054 4.51957 11.2929 4.70711C11.4804 4.89464 11.7348 5 12 5ZM5.64 7.05C5.82626 7.23474 6.07766 7.3389 6.34 7.34C6.47161 7.34076 6.60207 7.31554 6.72391 7.26577C6.84574 7.21601 6.95656 7.14268 7.05 7.05C7.23625 6.86264 7.34079 6.60919 7.34079 6.345C7.34079 6.08081 7.23625 5.82736 7.05 5.64L6.34 4.93C6.1487 4.76617 5.90262 4.68057 5.65095 4.69029C5.39927 4.70001 5.16053 4.80434 4.98244 4.98244C4.80434 5.16053 4.70001 5.39927 4.69029 5.65095C4.68057 5.90262 4.76617 6.1487 4.93 6.34L5.64 7.05ZM17.64 7.34C17.9023 7.3389 18.1537 7.23474 18.34 7.05L19.05 6.34C19.1547 6.25035 19.2397 6.14004 19.2997 6.01597C19.3597 5.89191 19.3935 5.75677 19.3988 5.61905C19.4041 5.48133 19.3809 5.344 19.3306 5.21568C19.2804 5.08735 19.2041 4.9708 19.1066 4.87335C19.0092 4.77589 18.8926 4.69964 18.7643 4.64936C18.636 4.59909 18.4987 4.57588 18.3609 4.5812C18.2232 4.58652 18.0881 4.62025 17.964 4.68027C17.84 4.7403 17.7296 4.82532 17.64 4.93L17 5.64C16.8137 5.82736 16.7092 6.08081 16.7092 6.345C16.7092 6.60919 16.8137 6.86264 17 7.05C17.1763 7.22536 17.4116 7.32875 17.66 7.34H17.64ZM21 11H20C19.7348 11 19.4804 11.1054 19.2929 11.2929C19.1054 11.4804 19 11.7348 19 12C19 12.2652 19.1054 12.5196 19.2929 12.7071C19.4804 12.8946 19.7348 13 20 13H21C21.2652 13 21.5196 12.8946 21.7071 12.7071C21.8946 12.5196 22 12.2652 22 12C22 11.7348 21.8946 11.4804 21.7071 11.2929C21.5196 11.1054 21.2652 11 21 11ZM12 19C11.7348 19 11.4804 19.1054 11.2929 19.2929C11.1054 19.4804 11 19.7348 11 20V21C11 21.2652 11.1054 21.5196 11.2929 21.7071C11.4804 21.8946 11.7348 22 12 22C12.2652 22 12.5196 21.8946 12.7071 21.7071C12.8946 21.5196 13 21.2652 13 21V20C13 19.7348 12.8946 19.4804 12.7071 19.2929C12.5196 19.1054 12.2652 19 12 19ZM18.36 17C18.17 16.8943 17.9508 16.8534 17.7355 16.8835C17.5202 16.9136 17.3205 17.0131 17.1668 17.1668C17.0131 17.3205 16.9136 17.5202 16.8835 17.7355C16.8534 17.9508 16.8943 18.17 17 18.36L17.71 19.07C17.8974 19.2563 18.1508 19.3608 18.415 19.3608C18.6792 19.3608 18.9326 19.2563 19.12 19.07C19.3063 18.8826 19.4108 18.6292 19.4108 18.365C19.4108 18.1008 19.3063 17.8474 19.12 17.66L18.36 17ZM12 6.5C10.9122 6.5 9.84883 6.82257 8.94436 7.42692C8.03989 8.03126 7.33494 8.89025 6.91866 9.89524C6.50238 10.9002 6.39346 12.0061 6.60568 13.073C6.8179 14.1399 7.34172 15.1199 8.11091 15.8891C8.8801 16.6583 9.86011 17.1821 10.927 17.3943C11.9939 17.6065 13.0998 17.4976 14.1048 17.0813C15.1098 16.6651 15.9687 15.9601 16.5731 15.0556C17.1774 14.1512 17.5 13.0878 17.5 12C17.4974 10.5421 16.917 9.14471 15.8862 8.11383C14.8553 7.08295 13.4579 6.50264 12 6.5ZM12 15.5C11.3078 15.5 10.6311 15.2947 10.0555 14.9101C9.47993 14.5256 9.03133 13.9789 8.76642 13.3394C8.50151 12.6999 8.4322 11.9961 8.56725 11.3172C8.7023 10.6383 9.03564 10.0146 9.52513 9.52513C10.0146 9.03564 10.6383 8.7023 11.3172 8.56725C11.9961 8.4322 12.6999 8.50151 13.3394 8.76642C13.9789 9.03133 14.5256 9.47993 14.9101 10.0555C15.2947 10.6311 15.5 11.3078 15.5 12C15.5 12.9283 15.1313 13.8185 14.4749 14.4749C13.8185 15.1313 12.9283 15.5 12 15.5Z" fill="currentColor"></path>
  </symbol>
  <symbol fill="none" xmlns="http://www.w3.org/2000/svg" viewBox="0 0 24 24" id="01n">
    <path d="M21.64 13C21.4957 12.8807 21.3207 12.8043 21.1351 12.7795C20.9494 12.7548 20.7606 12.7827 20.59 12.86C19.5326 13.3439 18.3829 13.5929 17.22 13.59C15.0689 13.5874 13.006 12.7344 11.4812 11.2171C9.95632 9.69976 9.09321 7.64111 9.08001 5.49C9.08457 4.81583 9.16848 4.14454 9.33001 3.49C9.36429 3.31554 9.35143 3.13509 9.29277 2.96725C9.2341 2.79941 9.13175 2.65025 8.99626 2.53513C8.86076 2.42001 8.69702 2.3431 8.52191 2.31231C8.3468 2.28153 8.16665 2.29799 8.00001 2.36C6.43234 3.06491 5.06958 4.15676 4.03977 5.53298C3.00996 6.9092 2.34689 8.52462 2.11286 10.2275C1.87883 11.9303 2.08152 13.6647 2.70188 15.2678C3.32225 16.8708 4.33993 18.2898 5.65931 19.3915C6.9787 20.4932 8.55649 21.2414 10.2445 21.5658C11.9324 21.8903 13.6752 21.7803 15.309 21.2462C16.9428 20.7122 18.414 19.7716 19.5844 18.5128C20.7548 17.254 21.5861 15.7183 22 14.05C22.0504 13.859 22.0431 13.6573 21.9791 13.4705C21.915 13.2836 21.797 13.1199 21.64 13ZM12.14 19.69C10.4618 19.6782 8.82821 19.1479 7.46301 18.1717C6.0978 17.1956 5.06768 15.8213 4.5137 14.2371C3.95971 12.6529 3.90895 10.9362 4.36835 9.322C4.82776 7.70782 5.77487 6.2751 7.08001 5.22V5.49C7.08266 8.17848 8.15183 10.7561 10.0529 12.6571C11.9539 14.5582 14.5315 15.6274 17.22 15.63C17.9259 15.6326 18.63 15.5588 19.32 15.41C18.6299 16.7155 17.5965 17.8078 16.3312 18.5691C15.0659 19.3304 13.6167 19.7318 12.14 19.73V19.69Z" fill="currentColor"></path>
  </symbol>
  <symbol fill="none" xmlns="http://www.w3.org/2000/svg" viewBox="0 0 24 24" id="02d">
    <path d="M21 9H20.2C20.0966 8.55129 19.921 8.12237 19.68 7.73L20.24 7.17C20.4038 6.9787 20.4894 6.73262 20.4797 6.48095C20.47 6.22927 20.3656 5.99053 20.1875 5.81244C20.0095 5.63434 19.7707 5.53001 19.519 5.52029C19.2674 5.51057 19.0213 5.59617 18.83 5.76L18.27 6.32C17.8776 6.07901 17.4487 5.90339 17 5.8V5C17 4.73478 16.8946 4.48043 16.7071 4.29289C16.5196 4.10536 16.2652 4 16 4C15.7348 4 15.4804 4.10536 15.2929 4.29289C15.1053 4.48043 15 4.73478 15 5V5.8C14.5539 5.90181 14.128 6.07758 13.74 6.32L13.17 5.76C12.9787 5.59617 12.7326 5.51057 12.4809 5.52029C12.2293 5.53001 11.9905 5.63434 11.8124 5.81244C11.6343 5.99053 11.53 6.22927 11.5203 6.48095C11.5106 6.73262 11.5962 6.9787 11.76 7.17L12.32 7.74C12.23 7.89 12.16 8.06 12.08 8.22C11.5658 8.07487 11.0342 8.00084 10.5 8C9.05884 7.99918 7.66555 8.5171 6.57486 9.45906C5.48417 10.401 4.76895 11.7041 4.55999 13.13C3.74618 13.3582 3.04244 13.8732 2.57875 14.5799C2.11506 15.2865 1.92274 16.1371 2.03732 16.9745C2.1519 17.8119 2.56563 18.5795 3.2021 19.1356C3.83858 19.6918 4.65479 19.9988 5.49999 20H14.67C15.8184 20 16.9197 19.5438 17.7318 18.7318C18.5438 17.9197 19 16.8184 19 15.67C18.9991 15.139 18.8973 14.613 18.7 14.12L18.83 14.24C19.0162 14.4247 19.2676 14.5289 19.53 14.53C19.6616 14.5308 19.7921 14.5055 19.9139 14.4558C20.0357 14.406 20.1465 14.3327 20.24 14.24C20.4262 14.0526 20.5308 13.7992 20.5308 13.535C20.5308 13.2708 20.4262 13.0174 20.24 12.83L19.68 12.27C19.921 11.8776 20.0966 11.4487 20.2 11H21C21.2652 11 21.5196 10.8946 21.7071 10.7071C21.8946 10.5196 22 10.2652 22 10C22 9.73478 21.8946 9.48043 21.7071 9.29289C21.5196 9.10536 21.2652 9 21 9ZM14.67 18H5.49999C5.10216 18 4.72063 17.842 4.43933 17.5607C4.15802 17.2794 3.99999 16.8978 3.99999 16.5C3.99999 16.1022 4.15802 15.7206 4.43933 15.4393C4.72063 15.158 5.10216 15 5.49999 15C5.7652 15 6.01956 14.8946 6.20709 14.7071C6.39463 14.5196 6.49999 14.2652 6.49999 14C6.50427 13.0557 6.84251 12.1434 7.45482 11.4245C8.06714 10.7056 8.91405 10.2265 9.84564 10.072C10.7772 9.91757 11.7334 10.0977 12.545 10.5805C13.3566 11.0633 13.9712 11.8176 14.28 12.71C14.3371 12.8818 14.4399 13.0349 14.5773 13.1529C14.7147 13.2709 14.8815 13.3494 15.06 13.38C15.6276 13.4861 16.1356 13.7992 16.4854 14.2586C16.8353 14.718 17.0021 15.2909 16.9535 15.8663C16.9049 16.4417 16.6444 16.9785 16.2225 17.3728C15.8006 17.767 15.2473 17.9905 14.67 18ZM17.67 11.65C17.4937 11.8159 17.2909 11.9511 17.07 12.05C16.7374 11.8335 16.3776 11.662 16 11.54C15.5405 10.5368 14.8184 9.67641 13.91 9.05C14.0192 8.79349 14.1752 8.55951 14.37 8.36C14.8174 7.94532 15.4049 7.71493 16.015 7.71493C16.625 7.71493 17.2126 7.94532 17.66 8.36C18.0889 8.8022 18.3287 9.394 18.3287 10.01C18.3287 10.626 18.0889 11.2178 17.66 11.66L17.67 11.65Z" fill="currentColor"></path>
  </symbol>
  <symbol fill="none" xmlns="http://www.w3.org/2000/svg" viewBox="0 0 24 24" id="02n">
    <path d="M21.7 9.07C21.5795 8.95167 21.4311 8.86577 21.2684 8.82031C21.1058 8.77484 20.9343 8.7713 20.77 8.81C20.5535 8.86002 20.3322 8.88684 20.11 8.89C19.3143 8.89 18.5513 8.57393 17.9887 8.01132C17.4261 7.44871 17.11 6.68565 17.11 5.89C17.1131 5.66778 17.14 5.44654 17.19 5.23C17.2287 5.06564 17.2251 4.89416 17.1797 4.73154C17.1342 4.56892 17.0483 4.42046 16.93 4.3C16.8136 4.17462 16.667 4.08119 16.5041 4.02867C16.3413 3.97614 16.1677 3.96627 16 4C15.0047 4.21974 14.102 4.74256 13.4161 5.4965C12.7302 6.25044 12.2949 7.19843 12.17 8.21C11.6254 8.0649 11.0636 7.99426 10.5 8C9.05884 7.99918 7.66555 8.5171 6.57486 9.45906C5.48417 10.401 4.76895 11.7041 4.55999 13.13C3.74618 13.3582 3.04244 13.8732 2.57875 14.5799C2.11506 15.2865 1.92274 16.1371 2.03732 16.9745C2.1519 17.8119 2.56563 18.5795 3.2021 19.1356C3.83858 19.6918 4.65479 19.9988 5.49999 20H14.67C15.8184 20 16.9197 19.5438 17.7318 18.7318C18.5438 17.9197 19 16.8184 19 15.67C19.0039 14.9731 18.8356 14.2861 18.51 13.67C19.3688 13.4302 20.1466 12.9624 20.7611 12.3163C21.3755 11.6701 21.8036 10.8697 22 10C22.0337 9.83227 22.0238 9.65869 21.9713 9.49586C21.9188 9.33303 21.8254 9.18641 21.7 9.07V9.07ZM14.7 18H5.49999C5.10216 18 4.72063 17.842 4.43933 17.5607C4.15802 17.2794 3.99999 16.8978 3.99999 16.5C3.99999 16.1022 4.15802 15.7206 4.43933 15.4393C4.72063 15.158 5.10216 15 5.49999 15C5.7652 15 6.01956 14.8946 6.20709 14.7071C6.39463 14.5196 6.49999 14.2652 6.49999 14C6.50245 13.2811 6.69862 12.5762 7.06784 11.9593C7.43706 11.3425 7.96569 10.8366 8.59813 10.4948C9.23057 10.153 9.94344 9.98793 10.6617 10.017C11.38 10.0461 12.0772 10.2682 12.68 10.66C13.41 11.1348 13.9621 11.8382 14.25 12.66C14.3071 12.8318 14.4099 12.9849 14.5473 13.1029C14.6846 13.2209 14.8515 13.2994 15.03 13.33C15.3366 13.3536 15.6356 13.4374 15.9099 13.5766C16.1841 13.7158 16.4283 13.9076 16.6284 14.1412C16.8285 14.3747 16.9806 14.6454 17.0761 14.9377C17.1716 15.2301 17.2086 15.5384 17.185 15.845C17.1613 16.1516 17.0775 16.4506 16.9384 16.7249C16.7992 16.9991 16.6073 17.2433 16.3738 17.4434C16.1403 17.6435 15.8696 17.7956 15.5773 17.8911C15.2849 17.9866 14.9766 18.0236 14.67 18H14.7ZM17.14 11.89C17.0002 11.9013 16.8598 11.9013 16.72 11.89C16.4892 11.7664 16.2484 11.6627 16 11.58C15.588 10.6831 14.9633 9.90046 14.18 9.3V8.93C14.18 8.49668 14.2738 8.06849 14.4551 7.6749C14.6363 7.28131 14.9007 6.93166 15.23 6.65C15.3848 7.71686 15.8803 8.7051 16.6426 9.46738C17.4049 10.2297 18.3931 10.7252 19.46 10.88C19.1669 11.2111 18.8043 11.4734 18.398 11.648C17.9918 11.8226 17.5519 11.9052 17.11 11.89H17.14Z" fill="currentColor"></path>
  </symbol>
  <symbol fill="none" xmlns="http://www.w3.org/2000/svg" viewBox="0 0 24 24" id="03d">
    <path d="M18.42 9.21C17.8083 7.80581 16.753 6.641 15.4157 5.89416C14.0785 5.14732 12.5333 4.85967 11.0169 5.07532C9.50051 5.29098 8.09671 5.99802 7.02073 7.08806C5.94475 8.17809 5.25597 9.59095 5.06001 11.11C4.1066 11.3383 3.27023 11.9088 2.70975 12.7132C2.14927 13.5175 1.9037 14.4997 2.01968 15.4732C2.13566 16.4467 2.60511 17.3437 3.33888 17.9939C4.07265 18.644 5.01964 19.0021 6.00001 19H17C18.1994 18.9967 19.3576 18.5624 20.2634 17.7763C21.1692 16.9902 21.7623 15.9047 21.9345 14.7177C22.1066 13.5308 21.8464 12.3215 21.2012 11.3105C20.5561 10.2994 19.569 9.55392 18.42 9.21ZM17 17H6.00001C5.46958 17 4.96087 16.7893 4.5858 16.4142C4.21073 16.0391 4.00001 15.5304 4.00001 15C4.00001 14.4696 4.21073 13.9609 4.5858 13.5858C4.96087 13.2107 5.46958 13 6.00001 13C6.26523 13 6.51958 12.8946 6.70712 12.7071C6.89466 12.5196 7.00001 12.2652 7.00001 12C7.00257 10.8173 7.4243 9.67375 8.19028 8.77258C8.95627 7.87141 10.0169 7.27095 11.1838 7.07787C12.3506 6.8848 13.5481 7.11161 14.5636 7.71801C15.579 8.32441 16.3466 9.27114 16.73 10.39C16.7887 10.56 16.8921 10.711 17.0294 10.8271C17.1666 10.9433 17.3327 11.0203 17.51 11.05C18.243 11.1853 18.8994 11.5885 19.3513 12.1813C19.8033 12.774 20.0183 13.5138 19.9547 14.2564C19.891 14.999 19.5532 15.6914 19.007 16.1986C18.4608 16.7058 17.7453 16.9915 17 17Z" fill="currentColor"></path>
  </symbol>
  <symbol fill="none" xmlns="http://www.w3.org/2000/svg" viewBox="0 0 24 24" id="03n">
    <path d="M18.42 9.21C17.8083 7.80581 16.753 6.641 15.4157 5.89416C14.0785 5.14732 12.5333 4.85967 11.0169 5.07532C9.50051 5.29098 8.09671 5.99802 7.02073 7.08806C5.94475 8.17809 5.25597 9.59095 5.06001 11.11C4.1066 11.3383 3.27023 11.9088 2.70975 12.7132C2.14927 13.5175 1.9037 14.4997 2.01968 15.4732C2.13566 16.4467 2.60511 17.3437 3.33888 17.9939C4.07265 18.644 5.01964 19.0021 6.00001 19H17C18.1994 18.9967 19.3576 18.5624 20.2634 17.7763C21.1692 16.9902 21.7623 15.9047 21.9345 14.7177C22.1066 13.5308 21.8464 12.3215 21.2012 11.3105C20.5561 10.2994 19.569 9.55392 18.42 9.21V9.21ZM17 17H6.00001C5.46958 17 4.96087 16.7893 4.5858 16.4142C4.21073 16.0391 4.00001 15.5304 4.00001 15C4.00001 14.4696 4.21073 13.9609 4.5858 13.5858C4.96087 13.2107 5.46958 13 6.00001 13C6.26523 13 6.51958 12.8946 6.70712 12.7071C6.89466 12.5196 7.00001 12.2652 7.00001 12C7.00257 10.8173 7.4243 9.67375 8.19028 8.77258C8.95627 7.87141 10.0169 7.27095 11.1838 7.07787C12.3506 6.8848 13.5481 7.11161 14.5636 7.71801C15.579 8.32441 16.3466 9.27114 16.73 10.39C16.7887 10.56 16.8921 10.711 17.0294 10.8271C17.1666 10.9433 17.3327 11.0203 17.51 11.05C18.243 11.1853 18.8994 11.5885 19.3513 12.1813C19.8033 12.774 20.0183 13.5138 19.9547 14.2564C19.891 14.999 19.5532 15.6914 19.007 16.1986C18.4608 16.7058 17.7453 16.9915 17 17V17Z" fill="currentColor"></path>
  </symbol>
  <symbol fill="none" xmlns="http://www.w3.org/2000/svg" viewBox="0 0 24 24" id="04d">
    <path d="M19.47 10.54C18.9961 9.48575 18.2277 8.59083 17.2574 7.96283C16.287 7.33483 15.1559 7.00049 14 7C13.5311 7.00379 13.0644 7.06422 12.61 7.18C12.0408 6.37654 11.247 5.75904 10.3283 5.40492C9.40949 5.0508 8.40662 4.97584 7.44542 5.18944C6.48422 5.40304 5.60748 5.89569 4.92516 6.60561C4.24285 7.31552 3.78533 8.21109 3.60999 9.18C2.95572 9.41554 2.4036 9.87105 2.04803 10.4686C1.69246 11.0662 1.55552 11.7688 1.66064 12.4561C1.76575 13.1435 2.10639 13.773 2.6243 14.2371C3.14221 14.7011 3.80523 14.9708 4.49999 15H5.49999C5.48956 15.1665 5.48956 15.3335 5.49999 15.5C5.49999 16.4283 5.86874 17.3185 6.52511 17.9749C7.18149 18.6313 8.07173 19 8.99999 19H18.17C19.2043 18.9998 20.2043 18.6294 20.9892 17.9558C21.7741 17.2822 22.2919 16.3499 22.449 15.3276C22.6061 14.3054 22.392 13.2606 21.8456 12.3824C21.2992 11.5043 20.4565 10.8507 19.47 10.54ZM4.49999 13C4.23477 13 3.98042 12.8946 3.79288 12.7071C3.60534 12.5196 3.49999 12.2652 3.49999 12C3.49999 11.7348 3.60534 11.4804 3.79288 11.2929C3.98042 11.1054 4.23477 11 4.49999 11C4.7652 11 5.01956 10.8946 5.20709 10.7071C5.39463 10.5196 5.49999 10.2652 5.49999 10C5.49999 9.20435 5.81606 8.44129 6.37867 7.87868C6.94128 7.31607 7.70434 7 8.49999 7C8.91937 7.00225 9.33361 7.09241 9.716 7.26465C10.0984 7.4369 10.4404 7.6874 10.72 8C10.0103 8.46176 9.40639 9.06848 8.94794 9.78029C8.48948 10.4921 8.18687 11.2929 8.05999 12.13C7.49476 12.2892 6.97883 12.5884 6.55999 13H4.49999ZM18.17 17H8.99999C8.60216 17 8.22063 16.842 7.93933 16.5607C7.65802 16.2794 7.49999 15.8978 7.49999 15.5C7.49999 15.1022 7.65802 14.7206 7.93933 14.4393C8.22063 14.158 8.60216 14 8.99999 14C9.2652 14 9.51956 13.8946 9.70709 13.7071C9.89463 13.5196 9.99999 13.2652 9.99999 13C10.0043 12.0557 10.3425 11.1434 10.9548 10.4245C11.5671 9.70558 12.414 9.22651 13.3456 9.07204C14.2772 8.91757 15.2334 9.09768 16.045 9.58047C16.8566 10.0633 17.4712 10.8176 17.78 11.71C17.8371 11.8818 17.9399 12.0349 18.0773 12.1529C18.2146 12.2709 18.3815 12.3494 18.56 12.38C19.1276 12.4861 19.6356 12.7992 19.9854 13.2586C20.3353 13.718 20.5021 14.2909 20.4535 14.8663C20.4049 15.4417 20.1444 15.9785 19.7225 16.3728C19.3006 16.767 18.7473 16.9905 18.17 17Z" fill="currentColor"></path>
  </symbol>
  <symbol fill="none" xmlns="http://www.w3.org/2000/svg" viewBox="0 0 24 24" id="04n">
    <path d="M19.47 10.54C18.9961 9.48575 18.2277 8.59083 17.2574 7.96283C16.287 7.33483 15.1559 7.00049 14 7C13.5311 7.00379 13.0644 7.06422 12.61 7.18C12.0408 6.37654 11.247 5.75904 10.3283 5.40492C9.40949 5.0508 8.40662 4.97584 7.44542 5.18944C6.48422 5.40304 5.60748 5.89569 4.92516 6.60561C4.24285 7.31552 3.78533 8.21109 3.60999 9.18C2.95572 9.41554 2.4036 9.87105 2.04803 10.4686C1.69246 11.0662 1.55552 11.7688 1.66064 12.4561C1.76575 13.1435 2.10639 13.773 2.6243 14.2371C3.14221 14.7011 3.80523 14.9708 4.49999 15H5.49999C5.48956 15.1665 5.48956 15.3335 5.49999 15.5C5.49999 16.4283 5.86874 17.3185 6.52511 17.9749C7.18149 18.6313 8.07173 19 8.99999 19H18.17C19.2043 18.9998 20.2043 18.6294 20.9892 17.9558C21.7741 17.2822 22.2919 16.3499 22.449 15.3276C22.6061 14.3054 22.392 13.2606 21.8456 12.3824C21.2992 11.5043 20.4565 10.8507 19.47 10.54ZM4.49999 13C4.23477 13 3.98042 12.8946 3.79288 12.7071C3.60534 12.5196 3.49999 12.2652 3.49999 12C3.49999 11.7348 3.60534 11.4804 3.79288 11.2929C3.98042 11.1054 4.23477 11 4.49999 11C4.7652 11 5.01956 10.8946 5.20709 10.7071C5.39463 10.5196 5.49999 10.2652 5.49999 10C5.49999 9.20435 5.81606 8.44129 6.37867 7.87868C6.94128 7.31607 7.70434 7 8.49999 7C8.91937 7.00225 9.33361 7.09241 9.716 7.26465C10.0984 7.4369 10.4404 7.6874 10.72 8C10.0103 8.46176 9.40639 9.06848 8.94794 9.78029C8.48948 10.4921 8.18687 11.2929 8.05999 12.13C7.49476 12.2892 6.97883 12.5884 6.55999 13H4.49999ZM18.17 17H8.99999C8.60216 17 8.22063 16.842 7.93933 16.5607C7.65802 16.2794 7.49999 15.8978 7.49999 15.5C7.49999 15.1022 7.65802 14.7206 7.93933 14.4393C8.22063 14.158 8.60216 14 8.99999 14C9.2652 14 9.51956 13.8946 9.70709 13.7071C9.89463 13.5196 9.99999 13.2652 9.99999 13C10.0043 12.0557 10.3425 11.1434 10.9548 10.4245C11.5671 9.70558 12.414 9.22651 13.3456 9.07204C14.2772 8.91757 15.2334 9.09768 16.045 9.58047C16.8566 10.0633 17.4712 10.8176 17.78 11.71C17.8371 11.8818 17.9399 12.0349 18.0773 12.1529C18.2146 12.2709 18.3815 12.3494 18.56 12.38C19.1276 12.4861 19.6356 12.7992 19.9854 13.2586C20.3353 13.718 20.5021 14.2909 20.4535 14.8663C20.4049 15.4417 20.1444 15.9785 19.7225 16.3728C19.3006 16.767 18.7473 16.9905 18.17 17V17Z" fill="currentColor"></path>
  </symbol>
  <symbol fill="none" xmlns="http://www.w3.org/2000/svg" viewBox="0 0 24 24" id="09d">
    <path d="M12.89 18.06C12.6407 17.9699 12.3658 17.9825 12.1258 18.0951C11.8858 18.2076 11.7003 18.4108 11.61 18.66L10.88 20.66C10.79 20.9093 10.8026 21.1842 10.9151 21.4242C11.0276 21.6642 11.2308 21.8497 11.48 21.94C11.589 21.9796 11.7041 21.9999 11.82 22C12.0255 21.9999 12.226 21.9365 12.3942 21.8184C12.5624 21.7003 12.6901 21.5333 12.76 21.34L13.49 19.34C13.5801 19.0907 13.5675 18.8158 13.455 18.5758C13.3425 18.3358 13.1393 18.1503 12.89 18.06ZM8.89002 18.06C8.64071 17.9699 8.36584 17.9825 8.12583 18.0951C7.88581 18.2076 7.70028 18.4108 7.61002 18.66L6.88002 20.66C6.78996 20.9093 6.80257 21.1842 6.91507 21.4242C7.02758 21.6642 7.23078 21.8497 7.48002 21.94C7.58902 21.9796 7.70407 21.9999 7.82002 22C8.02553 21.9999 8.22603 21.9365 8.39423 21.8184C8.56242 21.7003 8.69015 21.5333 8.76002 21.34L9.49002 19.34C9.58008 19.0907 9.56747 18.8158 9.45497 18.5758C9.34246 18.3358 9.13926 18.1503 8.89002 18.06ZM8.89002 11.06C8.64071 10.9699 8.36584 10.9825 8.12583 11.0951C7.88581 11.2076 7.70028 11.4108 7.61002 11.66L6.51002 14.66C6.45544 14.811 6.438 14.9729 6.4592 15.132C6.48039 15.2912 6.53959 15.4429 6.63179 15.5743C6.72398 15.7057 6.84647 15.813 6.98889 15.8871C7.13131 15.9612 7.28948 15.9999 7.45002 16C7.65553 15.9999 7.85603 15.9365 8.02423 15.8184C8.19242 15.7003 8.32015 15.5333 8.39002 15.34L9.49002 12.34C9.58008 12.0907 9.56747 11.8158 9.45497 11.5758C9.34246 11.3358 9.13926 11.1503 8.89002 11.06ZM12.89 11.06C12.6407 10.9699 12.3658 10.9825 12.1258 11.0951C11.8858 11.2076 11.7003 11.4108 11.61 11.66L10.51 14.66C10.4554 14.811 10.438 14.9729 10.4592 15.132C10.4804 15.2912 10.5396 15.4429 10.6318 15.5743C10.724 15.7057 10.8465 15.813 10.9889 15.8871C11.1313 15.9612 11.2895 15.9999 11.45 16C11.6555 15.9999 11.856 15.9365 12.0242 15.8184C12.1924 15.7003 12.3201 15.5333 12.39 15.34L13.49 12.34C13.5801 12.0907 13.5675 11.8158 13.455 11.5758C13.3425 11.3358 13.1393 11.1503 12.89 11.06ZM18.42 6.22C17.809 4.81601 16.7545 3.65108 15.4181 2.90373C14.0817 2.15638 12.5371 1.86783 11.021 2.08231C9.50489 2.29679 8.10095 3.00245 7.02427 4.09118C5.9476 5.1799 5.25761 6.59162 5.06002 8.11C4.18743 8.32097 3.41118 8.81933 2.85615 9.52491C2.30111 10.2305 1.99957 11.1023 2.00002 12C1.99823 12.5664 2.11677 13.1268 2.34777 13.6439C2.57878 14.1611 2.91699 14.6233 3.34002 15C3.43738 15.0935 3.55266 15.1663 3.67892 15.2141C3.80518 15.2619 3.9398 15.2836 4.07467 15.2779C4.20955 15.2723 4.34188 15.2393 4.46369 15.1812C4.5855 15.123 4.69428 15.0408 4.78346 14.9394C4.87264 14.8381 4.94037 14.7197 4.98259 14.5915C5.0248 14.4633 5.04062 14.3279 5.02909 14.1934C5.01755 14.0589 4.97891 13.9281 4.91548 13.8089C4.85205 13.6898 4.76515 13.5847 4.66002 13.5C4.45032 13.3108 4.28309 13.0792 4.16933 12.8207C4.05557 12.5622 3.99787 12.2825 4.00002 12C4.00002 11.4696 4.21073 10.9609 4.58581 10.5858C4.96088 10.2107 5.46959 10 6.00002 10C6.26524 10 6.51959 9.89464 6.70713 9.70711C6.89466 9.51957 7.00002 9.26522 7.00002 9C7.00257 7.81728 7.42431 6.67375 8.19029 5.77259C8.95627 4.87142 10.0169 4.27095 11.1838 4.07788C12.3506 3.8848 13.5482 4.11161 14.5636 4.71801C15.579 5.32441 16.3466 6.27114 16.73 7.39C16.7872 7.56184 16.8899 7.71493 17.0273 7.83293C17.1647 7.95094 17.3315 8.02942 17.51 8.06C18.2042 8.17974 18.8341 8.53993 19.2893 9.07747C19.7446 9.615 19.9962 10.2956 20 11C20.0153 11.7363 19.7509 12.451 19.26 13C19.1004 13.1988 19.0227 13.4511 19.0429 13.7053C19.063 13.9594 19.1795 14.1963 19.3686 14.3674C19.5576 14.5386 19.8048 14.631 20.0597 14.6259C20.3147 14.6208 20.558 14.5186 20.74 14.34C21.2908 13.7106 21.6749 12.953 21.8572 12.1367C22.0394 11.3204 22.0139 10.4714 21.7831 9.66744C21.5523 8.86351 21.1234 8.13033 20.5359 7.53503C19.9483 6.93974 19.2209 6.50135 18.42 6.26V6.22ZM16.89 18.06C16.6407 17.9699 16.3658 17.9825 16.1258 18.0951C15.8858 18.2076 15.7003 18.4108 15.61 18.66L14.88 20.66C14.79 20.9093 14.8026 21.1842 14.9151 21.4242C15.0276 21.6642 15.2308 21.8497 15.48 21.94C15.589 21.9796 15.7041 21.9999 15.82 22C16.0255 21.9999 16.226 21.9365 16.3942 21.8184C16.5624 21.7003 16.6901 21.5333 16.76 21.34L17.49 19.34C17.5801 19.0907 17.5675 18.8158 17.455 18.5758C17.3425 18.3358 17.1393 18.1503 16.89 18.06ZM16.89 11.06C16.6407 10.9699 16.3658 10.9825 16.1258 11.0951C15.8858 11.2076 15.7003 11.4108 15.61 11.66L14.51 14.66C14.4554 14.811 14.438 14.9729 14.4592 15.132C14.4804 15.2912 14.5396 15.4429 14.6318 15.5743C14.724 15.7057 14.8465 15.813 14.9889 15.8871C15.1313 15.9612 15.2895 15.9999 15.45 16C15.6555 15.9999 15.856 15.9365 16.0242 15.8184C16.1924 15.7003 16.3201 15.5333 16.39 15.34L17.49 12.34C17.5801 12.0907 17.5675 11.8158 17.455 11.5758C17.3425 11.3358 17.1393 11.1503 16.89 11.06Z" fill="currentColor"></path>
  </symbol>
  <symbol fill="none" xmlns="http://www.w3.org/2000/svg" viewBox="0 0 24 24" id="09n">
    <path d="M12.89 18.06C12.6407 17.9699 12.3658 17.9825 12.1258 18.0951C11.8858 18.2076 11.7003 18.4108 11.61 18.66L10.88 20.66C10.79 20.9093 10.8026 21.1842 10.9151 21.4242C11.0276 21.6642 11.2308 21.8497 11.48 21.94C11.589 21.9796 11.7041 21.9999 11.82 22C12.0255 21.9999 12.226 21.9365 12.3942 21.8184C12.5624 21.7003 12.6901 21.5333 12.76 21.34L13.49 19.34C13.5801 19.0907 13.5675 18.8158 13.455 18.5758C13.3425 18.3358 13.1393 18.1503 12.89 18.06V18.06ZM8.89002 18.06C8.64071 17.9699 8.36584 17.9825 8.12583 18.0951C7.88581 18.2076 7.70028 18.4108 7.61002 18.66L6.88002 20.66C6.78996 20.9093 6.80257 21.1842 6.91507 21.4242C7.02758 21.6642 7.23078 21.8497 7.48002 21.94C7.58902 21.9796 7.70407 21.9999 7.82002 22C8.02553 21.9999 8.22603 21.9365 8.39423 21.8184C8.56242 21.7003 8.69015 21.5333 8.76002 21.34L9.49002 19.34C9.58008 19.0907 9.56747 18.8158 9.45497 18.5758C9.34246 18.3358 9.13926 18.1503 8.89002 18.06V18.06ZM8.89002 11.06C8.64071 10.9699 8.36584 10.9825 8.12583 11.0951C7.88581 11.2076 7.70028 11.4108 7.61002 11.66L6.51002 14.66C6.45544 14.811 6.438 14.9729 6.4592 15.132C6.48039 15.2912 6.53959 15.4429 6.63179 15.5743C6.72398 15.7057 6.84647 15.813 6.98889 15.8871C7.13131 15.9612 7.28948 15.9999 7.45002 16C7.65553 15.9999 7.85603 15.9365 8.02423 15.8184C8.19242 15.7003 8.32015 15.5333 8.39002 15.34L9.49002 12.34C9.58008 12.0907 9.56747 11.8158 9.45497 11.5758C9.34246 11.3358 9.13926 11.1503 8.89002 11.06ZM12.89 11.06C12.6407 10.9699 12.3658 10.9825 12.1258 11.0951C11.8858 11.2076 11.7003 11.4108 11.61 11.66L10.51 14.66C10.4554 14.811 10.438 14.9729 10.4592 15.132C10.4804 15.2912 10.5396 15.4429 10.6318 15.5743C10.724 15.7057 10.8465 15.813 10.9889 15.8871C11.1313 15.9612 11.2895 15.9999 11.45 16C11.6555 15.9999 11.856 15.9365 12.0242 15.8184C12.1924 15.7003 12.3201 15.5333 12.39 15.34L13.49 12.34C13.5801 12.0907 13.5675 11.8158 13.455 11.5758C13.3425 11.3358 13.1393 11.1503 12.89 11.06ZM18.42 6.22C17.809 4.81601 16.7545 3.65108 15.4181 2.90373C14.0817 2.15638 12.5371 1.86783 11.021 2.08231C9.50489 2.29679 8.10095 3.00245 7.02427 4.09118C5.9476 5.1799 5.25761 6.59162 5.06002 8.11C4.18743 8.32097 3.41118 8.81933 2.85615 9.52491C2.30111 10.2305 1.99957 11.1023 2.00002 12C1.99823 12.5664 2.11677 13.1268 2.34777 13.6439C2.57878 14.1611 2.91699 14.6233 3.34002 15C3.43738 15.0935 3.55266 15.1663 3.67892 15.2141C3.80518 15.2619 3.9398 15.2836 4.07467 15.2779C4.20955 15.2723 4.34188 15.2393 4.46369 15.1812C4.5855 15.123 4.69428 15.0408 4.78346 14.9394C4.87264 14.8381 4.94037 14.7197 4.98259 14.5915C5.0248 14.4633 5.04062 14.3279 5.02909 14.1934C5.01755 14.0589 4.97891 13.9281 4.91548 13.8089C4.85205 13.6898 4.76515 13.5847 4.66002 13.5C4.45032 13.3108 4.28309 13.0792 4.16933 12.8207C4.05557 12.5622 3.99787 12.2825 4.00002 12C4.00002 11.4696 4.21073 10.9609 4.58581 10.5858C4.96088 10.2107 5.46959 10 6.00002 10C6.26524 10 6.51959 9.89464 6.70713 9.70711C6.89466 9.51957 7.00002 9.26522 7.00002 9C7.00257 7.81728 7.42431 6.67375 8.19029 5.77259C8.95627 4.87142 10.0169 4.27095 11.1838 4.07788C12.3506 3.8848 13.5482 4.11161 14.5636 4.71801C15.579 5.32441 16.3466 6.27114 16.73 7.39C16.7872 7.56184 16.8899 7.71493 17.0273 7.83293C17.1647 7.95094 17.3315 8.02942 17.51 8.06C18.2042 8.17974 18.8341 8.53993 19.2893 9.07747C19.7446 9.615 19.9962 10.2956 20 11C20.0153 11.7363 19.7509 12.451 19.26 13C19.1004 13.1988 19.0227 13.4511 19.0429 13.7053C19.063 13.9594 19.1795 14.1963 19.3686 14.3674C19.5576 14.5386 19.8048 14.631 20.0597 14.6259C20.3147 14.6208 20.558 14.5186 20.74 14.34C21.2908 13.7106 21.6749 12.953 21.8572 12.1367C22.0394 11.3204 22.0139 10.4714 21.7831 9.66744C21.5523 8.86351 21.1234 8.13033 20.5359 7.53503C19.9483 6.93974 19.2209 6.50135 18.42 6.26V6.22ZM16.89 18.06C16.6407 17.9699 16.3658 17.9825 16.1258 18.0951C15.8858 18.2076 15.7003 18.4108 15.61 18.66L14.88 20.66C14.79 20.9093 14.8026 21.1842 14.9151 21.4242C15.0276 21.6642 15.2308 21.8497 15.48 21.94C15.589 21.9796 15.7041 21.9999 15.82 22C16.0255 21.9999 16.226 21.9365 16.3942 21.8184C16.5624 21.7003 16.6901 21.5333 16.76 21.34L17.49 19.34C17.5801 19.0907 17.5675 18.8158 17.455 18.5758C17.3425 18.3358 17.1393 18.1503 16.89 18.06ZM16.89 11.06C16.6407 10.9699 16.3658 10.9825 16.1258 11.0951C15.8858 11.2076 15.7003 11.4108 15.61 11.66L14.51 14.66C14.4554 14.811 14.438 14.9729 14.4592 15.132C14.4804 15.2912 14.5396 15.4429 14.6318 15.5743C14.724 15.7057 14.8465 15.813 14.9889 15.8871C15.1313 15.9612 15.2895 15.9999 15.45 16C15.6555 15.9999 15.856 15.9365 16.0242 15.8184C16.1924 15.7003 16.3201 15.5333 16.39 15.34L17.49 12.34C17.5801 12.0907 17.5675 11.8158 17.455 11.5758C17.3425 11.3358 17.1393 11.1503 16.89 11.06Z" fill="currentColor"></path>
  </symbol>
  <symbol fill="none" xmlns="http://www.w3.org/2000/svg" viewBox="0 0 24 24" id="10d">
    <path d="M8.50001 19C8.23479 19 7.98044 19.1054 7.7929 19.2929C7.60536 19.4804 7.50001 19.7348 7.50001 20V21C7.50001 21.2652 7.60536 21.5196 7.7929 21.7071C7.98044 21.8946 8.23479 22 8.50001 22C8.76522 22 9.01958 21.8946 9.20711 21.7071C9.39465 21.5196 9.50001 21.2652 9.50001 21V20C9.50001 19.7348 9.39465 19.4804 9.20711 19.2929C9.01958 19.1054 8.76522 19 8.50001 19ZM8.50001 14C8.23479 14 7.98044 14.1054 7.7929 14.2929C7.60536 14.4804 7.50001 14.7348 7.50001 15V16C7.50001 16.2652 7.60536 16.5196 7.7929 16.7071C7.98044 16.8946 8.23479 17 8.50001 17C8.76522 17 9.01958 16.8946 9.20711 16.7071C9.39465 16.5196 9.50001 16.2652 9.50001 16V15C9.50001 14.7348 9.39465 14.4804 9.20711 14.2929C9.01958 14.1054 8.76522 14 8.50001 14ZM21 7H20.2C20.0966 6.55129 19.921 6.12237 19.68 5.73L20.24 5.17C20.4038 4.9787 20.4894 4.73262 20.4797 4.48095C20.47 4.22927 20.3657 3.99053 20.1876 3.81244C20.0095 3.63434 19.7707 3.53001 19.5191 3.52029C19.2674 3.51057 19.0213 3.59617 18.83 3.76L18.27 4.32C17.8776 4.07901 17.4487 3.90339 17 3.8V3C17 2.73478 16.8946 2.48043 16.7071 2.29289C16.5196 2.10536 16.2652 2 16 2C15.7348 2 15.4804 2.10536 15.2929 2.29289C15.1054 2.48043 15 2.73478 15 3V3.8C14.5539 3.90181 14.128 4.07758 13.74 4.32L13.17 3.76C12.9787 3.59617 12.7326 3.51057 12.481 3.52029C12.2293 3.53001 11.9905 3.63434 11.8124 3.81244C11.6343 3.99053 11.53 4.22927 11.5203 4.48095C11.5106 4.73262 11.5962 4.9787 11.76 5.17L12.32 5.74C12.23 5.89 12.16 6.06 12.08 6.22C11.5659 6.07486 11.0342 6.00084 10.5 6C9.05886 5.99918 7.66557 6.5171 6.57488 7.45906C5.48419 8.40102 4.76897 9.70409 4.56001 11.13C3.86364 11.3239 3.2444 11.7287 2.78734 12.2887C2.33028 12.8487 2.05784 13.5365 2.00743 14.2576C1.95701 14.9787 2.13111 15.6978 2.5058 16.3159C2.88049 16.9341 3.43739 17.4211 4.10001 17.71C4.22744 17.7605 4.36295 17.7876 4.50001 17.79C4.7312 17.7919 4.95591 17.7136 5.13589 17.5685C5.31586 17.4233 5.43999 17.2203 5.48715 16.994C5.5343 16.7676 5.50157 16.532 5.39452 16.327C5.28747 16.1221 5.11272 15.9606 4.90001 15.87C4.6317 15.7557 4.40314 15.5647 4.24302 15.321C4.0829 15.0772 3.99836 14.7916 4.00001 14.5C4.00001 14.1022 4.15804 13.7206 4.43935 13.4393C4.72065 13.158 5.10218 13 5.50001 13C5.76522 13 6.01958 12.8946 6.20711 12.7071C6.39465 12.5196 6.50001 12.2652 6.50001 12C6.50429 11.0557 6.84253 10.1434 7.45484 9.42447C8.06716 8.70558 8.91406 8.22651 9.84566 8.07204C10.7773 7.91757 11.7335 8.09767 12.545 8.58047C13.3566 9.06326 13.9712 9.81761 14.28 10.71C14.3372 10.8818 14.4399 11.0349 14.5773 11.1529C14.7147 11.2709 14.8815 11.3494 15.06 11.38C15.5245 11.4488 15.9571 11.6569 16.3008 11.9768C16.6445 12.2967 16.883 12.7133 16.9849 13.1717C17.0867 13.63 17.0471 14.1085 16.8713 14.5439C16.6954 14.9792 16.3916 15.351 16 15.61C15.7772 15.7559 15.6215 15.9843 15.5671 16.2449C15.5127 16.5056 15.5641 16.7772 15.71 17C15.8559 17.2228 16.0843 17.3785 16.3449 17.4329C16.6056 17.4873 16.8772 17.4359 17.1 17.29C17.6897 16.8891 18.1716 16.3491 18.503 15.7177C18.8343 15.0864 19.0051 14.383 19 13.67C18.9991 13.139 18.8973 12.613 18.7 12.12L18.83 12.24C19.0163 12.4247 19.2677 12.5289 19.53 12.53C19.6616 12.5308 19.7921 12.5055 19.9139 12.4558C20.0357 12.406 20.1466 12.3327 20.24 12.24C20.4263 12.0526 20.5308 11.7992 20.5308 11.535C20.5308 11.2708 20.4263 11.0174 20.24 10.83L19.68 10.27C19.921 9.87763 20.0966 9.44871 20.2 9H21C21.2652 9 21.5196 8.89464 21.7071 8.70711C21.8946 8.51957 22 8.26522 22 8C22 7.73478 21.8946 7.48043 21.7071 7.29289C21.5196 7.10536 21.2652 7 21 7ZM17.66 9.65C17.4863 9.82422 17.2832 9.96641 17.06 10.07C16.7337 9.84377 16.3768 9.6653 16 9.54C15.5406 8.53676 14.8184 7.67641 13.91 7.05C14.0215 6.7917 14.1771 6.55482 14.37 6.35C14.8191 5.93464 15.4083 5.70393 16.02 5.70393C16.6317 5.70393 17.2209 5.93464 17.67 6.35C18.0989 6.7922 18.3387 7.384 18.3387 8C18.3387 8.616 18.0989 9.2078 17.67 9.65H17.66ZM12.5 18C12.2348 18 11.9804 18.1054 11.7929 18.2929C11.6054 18.4804 11.5 18.7348 11.5 19V20C11.5 20.2652 11.6054 20.5196 11.7929 20.7071C11.9804 20.8946 12.2348 21 12.5 21C12.7652 21 13.0196 20.8946 13.2071 20.7071C13.3946 20.5196 13.5 20.2652 13.5 20V19C13.5 18.7348 13.3946 18.4804 13.2071 18.2929C13.0196 18.1054 12.7652 18 12.5 18ZM12.5 13C12.2348 13 11.9804 13.1054 11.7929 13.2929C11.6054 13.4804 11.5 13.7348 11.5 14V15C11.5 15.2652 11.6054 15.5196 11.7929 15.7071C11.9804 15.8946 12.2348 16 12.5 16C12.7652 16 13.0196 15.8946 13.2071 15.7071C13.3946 15.5196 13.5 15.2652 13.5 15V14C13.5 13.7348 13.3946 13.4804 13.2071 13.2929C13.0196 13.1054 12.7652 13 12.5 13Z" fill="currentColor"></path>
  </symbol>
  <symbol fill="none" xmlns="http://www.w3.org/2000/svg" viewBox="0 0 24 24" id="10n">
    <path d="M8.50001 14C8.23479 14 7.98044 14.1054 7.7929 14.2929C7.60536 14.4804 7.50001 14.7348 7.50001 15V16C7.50001 16.2652 7.60536 16.5196 7.7929 16.7071C7.98044 16.8946 8.23479 17 8.50001 17C8.76522 17 9.01958 16.8946 9.20711 16.7071C9.39465 16.5196 9.50001 16.2652 9.50001 16V15C9.50001 14.7348 9.39465 14.4804 9.20711 14.2929C9.01958 14.1054 8.76522 14 8.50001 14ZM8.50001 19C8.23479 19 7.98044 19.1054 7.7929 19.2929C7.60536 19.4804 7.50001 19.7348 7.50001 20V21C7.50001 21.2652 7.60536 21.5196 7.7929 21.7071C7.98044 21.8946 8.23479 22 8.50001 22C8.76522 22 9.01958 21.8946 9.20711 21.7071C9.39465 21.5196 9.50001 21.2652 9.50001 21V20C9.50001 19.7348 9.39465 19.4804 9.20711 19.2929C9.01958 19.1054 8.76522 19 8.50001 19ZM21.7 7.07C21.5785 6.95003 21.4284 6.86315 21.2639 6.81764C21.0993 6.77212 20.9259 6.7695 20.76 6.81C20.5469 6.86031 20.3289 6.88713 20.11 6.89C19.3144 6.89 18.5513 6.57393 17.9887 6.01132C17.4261 5.44871 17.11 4.68565 17.11 3.89C17.1132 3.66779 17.14 3.44654 17.19 3.23C17.2287 3.06564 17.2252 2.89416 17.1797 2.73154C17.1342 2.56892 17.0483 2.42046 16.93 2.3C16.8136 2.17462 16.667 2.08119 16.5041 2.02867C16.3413 1.97614 16.1677 1.96627 16 2C15.0047 2.21974 14.102 2.74256 13.4161 3.4965C12.7302 4.25044 12.2949 5.19843 12.17 6.21C11.6254 6.0649 11.0636 5.99426 10.5 6C9.05886 5.99918 7.66557 6.5171 6.57488 7.45906C5.48419 8.40102 4.76897 9.70409 4.56001 11.13C3.86364 11.3239 3.2444 11.7287 2.78734 12.2887C2.33028 12.8487 2.05784 13.5365 2.00743 14.2576C1.95701 14.9787 2.13111 15.6978 2.5058 16.3159C2.88049 16.9341 3.43739 17.4211 4.10001 17.71C4.22744 17.7605 4.36295 17.7876 4.50001 17.79C4.7312 17.7919 4.95591 17.7136 5.13589 17.5685C5.31586 17.4233 5.43999 17.2203 5.48715 16.994C5.5343 16.7676 5.50157 16.532 5.39452 16.327C5.28747 16.1221 5.11272 15.9606 4.90001 15.87C4.6317 15.7557 4.40314 15.5647 4.24302 15.321C4.0829 15.0772 3.99836 14.7916 4.00001 14.5C4.00001 14.1022 4.15804 13.7206 4.43935 13.4393C4.72065 13.158 5.10218 13 5.50001 13C5.76522 13 6.01958 12.8946 6.20711 12.7071C6.39465 12.5196 6.50001 12.2652 6.50001 12C6.50001 10.9391 6.92143 9.92172 7.67158 9.17157C8.42172 8.42143 9.43914 8 10.5 8C11.2727 8.00076 12.0278 8.23043 12.67 8.66C13.4 9.13485 13.9521 9.83815 14.24 10.66C14.2972 10.8318 14.3999 10.9849 14.5373 11.1029C14.6747 11.2209 14.8415 11.2994 15.02 11.33C15.5013 11.3803 15.9549 11.5799 16.3172 11.9008C16.6794 12.2217 16.9323 12.6479 17.0403 13.1196C17.1483 13.5914 17.1061 14.0851 16.9195 14.5316C16.733 14.9782 16.4115 15.3553 16 15.61C15.8897 15.6822 15.7947 15.7755 15.7204 15.8844C15.6461 15.9934 15.5941 16.1159 15.5671 16.2449C15.5402 16.374 15.539 16.5071 15.5635 16.6367C15.588 16.7662 15.6378 16.8897 15.71 17C15.7822 17.1103 15.8755 17.2053 15.9844 17.2796C16.0934 17.3539 16.2159 17.406 16.3449 17.4329C16.474 17.4598 16.6071 17.4611 16.7367 17.4365C16.8662 17.412 16.9897 17.3622 17.1 17.29C17.691 16.8904 18.1738 16.3507 18.5053 15.719C18.8369 15.0873 19.0068 14.3834 19 13.67C19.0039 12.9731 18.8356 12.2861 18.51 11.67C19.3688 11.4302 20.1466 10.9624 20.7611 10.3163C21.3755 9.67013 21.8036 8.86975 22 8C22.0337 7.83227 22.0239 7.65869 21.9713 7.49586C21.9188 7.33303 21.8254 7.18641 21.7 7.07V7.07ZM17.11 9.89C16.9702 9.90083 16.8298 9.90083 16.69 9.89C16.4702 9.75417 16.2394 9.63708 16 9.54C15.5881 8.64314 14.9633 7.86046 14.18 7.26V6.89C14.18 6.45668 14.2738 6.02849 14.4551 5.6349C14.6363 5.24131 14.9007 4.89166 15.23 4.61C15.3848 5.67686 15.8803 6.6651 16.6426 7.42738C17.4049 8.18966 18.3932 8.68516 19.46 8.84C19.1707 9.17842 18.8098 9.44822 18.4033 9.62983C17.9969 9.81144 17.5551 9.90032 17.11 9.89ZM12.5 13C12.2348 13 11.9804 13.1054 11.7929 13.2929C11.6054 13.4804 11.5 13.7348 11.5 14V15C11.5 15.2652 11.6054 15.5196 11.7929 15.7071C11.9804 15.8946 12.2348 16 12.5 16C12.7652 16 13.0196 15.8946 13.2071 15.7071C13.3946 15.5196 13.5 15.2652 13.5 15V14C13.5 13.7348 13.3946 13.4804 13.2071 13.2929C13.0196 13.1054 12.7652 13 12.5 13ZM12.5 18C12.2348 18 11.9804 18.1054 11.7929 18.2929C11.6054 18.4804 11.5 18.7348 11.5 19V20C11.5 20.2652 11.6054 20.5196 11.7929 20.7071C11.9804 20.8946 12.2348 21 12.5 21C12.7652 21 13.0196 20.8946 13.2071 20.7071C13.3946 20.5196 13.5 20.2652 13.5 20V19C13.5 18.7348 13.3946 18.4804 13.2071 18.2929C13.0196 18.1054 12.7652 18 12.5 18Z" fill="currentColor"></path>
  </symbol>
  <symbol fill="none" xmlns="http://www.w3.org/2000/svg" viewBox="0 0 24 24" id="11d">
    <path d="M13.5 15H11.23L12.68 12.5C12.7457 12.3858 12.7882 12.2597 12.8051 12.129C12.8221 11.9983 12.8131 11.8656 12.7787 11.7384C12.7444 11.6112 12.6853 11.492 12.6049 11.3876C12.5245 11.2832 12.4243 11.1957 12.31 11.13C12.1958 11.0643 12.0697 11.0218 11.939 11.0049C11.8083 10.9879 11.6756 10.9969 11.5484 11.0313C11.4212 11.0656 11.302 11.1247 11.1976 11.2051C11.0932 11.2856 11.0057 11.3858 10.94 11.5L8.63001 15.5C8.54224 15.652 8.49604 15.8245 8.49604 16C8.49604 16.1755 8.54224 16.348 8.63001 16.5C8.71812 16.6526 8.84498 16.7792 8.99776 16.867C9.15054 16.9548 9.3238 17.0007 9.50001 17H11.77L10.32 19.5C10.1874 19.7307 10.1519 20.0047 10.2213 20.2616C10.2907 20.5186 10.4593 20.7374 10.69 20.87C10.9208 21.0026 11.1947 21.0381 11.4516 20.9687C11.7086 20.8994 11.9274 20.7307 12.06 20.5L14.37 16.5C14.4578 16.348 14.504 16.1755 14.504 16C14.504 15.8245 14.4578 15.652 14.37 15.5C14.2819 15.3474 14.155 15.2208 14.0023 15.133C13.8495 15.0452 13.6762 14.9993 13.5 15ZM18.42 7.21C17.8083 5.80581 16.753 4.641 15.4157 3.89416C14.0785 3.14732 12.5333 2.85967 11.0169 3.07533C9.50051 3.29098 8.09671 3.99803 7.02073 5.08806C5.94475 6.1781 5.25597 7.59095 5.06001 9.11C4.1066 9.33833 3.27023 9.90884 2.70975 10.7132C2.14927 11.5175 1.9037 12.4997 2.01968 13.4732C2.13566 14.4467 2.60511 15.3437 3.33888 15.9939C4.07265 16.644 5.01964 17.0021 6.00001 17C6.26523 17 6.51958 16.8946 6.70712 16.7071C6.89466 16.5196 7.00001 16.2652 7.00001 16C7.00001 15.7348 6.89466 15.4804 6.70712 15.2929C6.51958 15.1054 6.26523 15 6.00001 15C5.46958 15 4.96087 14.7893 4.5858 14.4142C4.21073 14.0391 4.00001 13.5304 4.00001 13C4.00001 12.4696 4.21073 11.9609 4.5858 11.5858C4.96087 11.2107 5.46958 11 6.00001 11C6.26523 11 6.51958 10.8946 6.70712 10.7071C6.89466 10.5196 7.00001 10.2652 7.00001 10C7.00257 8.81728 7.4243 7.67376 8.19028 6.77259C8.95627 5.87142 10.0169 5.27095 11.1838 5.07788C12.3506 4.8848 13.5481 5.11161 14.5636 5.71801C15.579 6.32441 16.3466 7.27114 16.73 8.39C16.7887 8.55998 16.8921 8.71099 17.0294 8.82714C17.1666 8.94329 17.3327 9.02028 17.51 9.05C18.243 9.18526 18.8994 9.58853 19.3513 10.1813C19.8033 10.774 20.0183 11.5138 19.9547 12.2564C19.891 12.999 19.5532 13.6914 19.007 14.1986C18.4608 14.7058 17.7453 14.9915 17 15C16.7348 15 16.4804 15.1054 16.2929 15.2929C16.1054 15.4804 16 15.7348 16 16C16 16.2652 16.1054 16.5196 16.2929 16.7071C16.4804 16.8946 16.7348 17 17 17C18.1994 16.9967 19.3576 16.5624 20.2634 15.7763C21.1692 14.9902 21.7623 13.9047 21.9345 12.7177C22.1066 11.5308 21.8464 10.3215 21.2012 9.31046C20.5561 8.2994 19.569 7.55393 18.42 7.21Z" fill="currentColor"></path>
  </symbol>
  <symbol fill="none" xmlns="http://www.w3.org/2000/svg" viewBox="0 0 24 24" id="11n">
    <path d="M13.5 15H11.23L12.68 12.5C12.7457 12.3858 12.7882 12.2597 12.8051 12.129C12.8221 11.9983 12.8131 11.8656 12.7787 11.7384C12.7444 11.6112 12.6853 11.492 12.6049 11.3876C12.5245 11.2832 12.4243 11.1957 12.31 11.13C12.1958 11.0643 12.0697 11.0218 11.939 11.0049C11.8083 10.9879 11.6756 10.9969 11.5484 11.0313C11.4212 11.0656 11.302 11.1247 11.1976 11.2051C11.0932 11.2856 11.0057 11.3858 10.94 11.5L8.63001 15.5C8.54224 15.652 8.49604 15.8245 8.49604 16C8.49604 16.1755 8.54224 16.348 8.63001 16.5C8.71812 16.6526 8.84498 16.7792 8.99776 16.867C9.15054 16.9548 9.3238 17.0007 9.50001 17H11.77L10.32 19.5C10.1874 19.7307 10.1519 20.0047 10.2213 20.2616C10.2907 20.5186 10.4593 20.7374 10.69 20.87C10.9208 21.0026 11.1947 21.0381 11.4516 20.9687C11.7086 20.8994 11.9274 20.7307 12.06 20.5L14.37 16.5C14.4578 16.348 14.504 16.1755 14.504 16C14.504 15.8245 14.4578 15.652 14.37 15.5C14.2819 15.3474 14.155 15.2208 14.0023 15.133C13.8495 15.0452 13.6762 14.9993 13.5 15ZM18.42 7.21C17.8083 5.80581 16.753 4.641 15.4157 3.89416C14.0785 3.14732 12.5333 2.85967 11.0169 3.07533C9.50051 3.29098 8.09671 3.99803 7.02073 5.08806C5.94475 6.1781 5.25597 7.59095 5.06001 9.11C4.1066 9.33833 3.27023 9.90884 2.70975 10.7132C2.14927 11.5175 1.9037 12.4997 2.01968 13.4732C2.13566 14.4467 2.60511 15.3437 3.33888 15.9939C4.07265 16.644 5.01964 17.0021 6.00001 17C6.26523 17 6.51958 16.8946 6.70712 16.7071C6.89466 16.5196 7.00001 16.2652 7.00001 16C7.00001 15.7348 6.89466 15.4804 6.70712 15.2929C6.51958 15.1054 6.26523 15 6.00001 15C5.46958 15 4.96087 14.7893 4.5858 14.4142C4.21073 14.0391 4.00001 13.5304 4.00001 13C4.00001 12.4696 4.21073 11.9609 4.5858 11.5858C4.96087 11.2107 5.46958 11 6.00001 11C6.26523 11 6.51958 10.8946 6.70712 10.7071C6.89466 10.5196 7.00001 10.2652 7.00001 10C7.00257 8.81728 7.4243 7.67376 8.19028 6.77259C8.95627 5.87142 10.0169 5.27095 11.1838 5.07788C12.3506 4.8848 13.5481 5.11161 14.5636 5.71801C15.579 6.32441 16.3466 7.27114 16.73 8.39C16.7887 8.55998 16.8921 8.71099 17.0294 8.82714C17.1666 8.94329 17.3327 9.02028 17.51 9.05C18.243 9.18526 18.8994 9.58853 19.3513 10.1813C19.8033 10.774 20.0183 11.5138 19.9547 12.2564C19.891 12.999 19.5532 13.6914 19.007 14.1986C18.4608 14.7058 17.7453 14.9915 17 15C16.7348 15 16.4804 15.1054 16.2929 15.2929C16.1054 15.4804 16 15.7348 16 16C16 16.2652 16.1054 16.5196 16.2929 16.7071C16.4804 16.8946 16.7348 17 17 17C18.1994 16.9967 19.3576 16.5624 20.2634 15.7763C21.1692 14.9902 21.7623 13.9047 21.9345 12.7177C22.1066 11.5308 21.8464 10.3215 21.2012 9.31046C20.5561 8.2994 19.569 7.55393 18.42 7.21Z" fill="currentColor"></path>
  </symbol>
  <symbol fill="none" xmlns="http://www.w3.org/2000/svg" viewBox="0 0 24 24" id="13d">
    <path d="M12 17C11.8022 17 11.6089 17.0587 11.4444 17.1685C11.28 17.2784 11.1518 17.4346 11.0761 17.6173C11.0005 17.8 10.9806 18.0011 11.0192 18.1951C11.0578 18.3891 11.1531 18.5673 11.2929 18.7071C11.4328 18.847 11.6109 18.9422 11.8049 18.9808C11.9989 19.0194 12.2 18.9996 12.3827 18.9239C12.5654 18.8482 12.7216 18.72 12.8315 18.5556C12.9414 18.3911 13 18.1978 13 18C13 17.7348 12.8947 17.4804 12.7071 17.2929C12.5196 17.1054 12.2652 17 12 17ZM8.00002 11C7.80224 11 7.6089 11.0587 7.44445 11.1685C7.28 11.2784 7.15183 11.4346 7.07614 11.6173C7.00045 11.8 6.98065 12.0011 7.01923 12.1951C7.05782 12.3891 7.15306 12.5673 7.29291 12.7071C7.43277 12.847 7.61095 12.9422 7.80493 12.9808C7.99891 13.0194 8.19998 12.9996 8.3827 12.9239C8.56543 12.8482 8.72161 12.72 8.83149 12.5556C8.94137 12.3911 9.00002 12.1978 9.00002 12C9.00002 11.7348 8.89466 11.4804 8.70713 11.2929C8.51959 11.1054 8.26524 11 8.00002 11V11ZM12 13C11.8022 13 11.6089 13.0587 11.4444 13.1685C11.28 13.2784 11.1518 13.4346 11.0761 13.6173C11.0005 13.8 10.9806 14.0011 11.0192 14.1951C11.0578 14.3891 11.1531 14.5673 11.2929 14.7071C11.4328 14.847 11.6109 14.9422 11.8049 14.9808C11.9989 15.0194 12.2 14.9996 12.3827 14.9239C12.5654 14.8482 12.7216 14.72 12.8315 14.5556C12.9414 14.3911 13 14.1978 13 14C13 13.7348 12.8947 13.4804 12.7071 13.2929C12.5196 13.1054 12.2652 13 12 13ZM8.00002 19C7.80224 19 7.6089 19.0587 7.44445 19.1685C7.28 19.2784 7.15183 19.4346 7.07614 19.6173C7.00045 19.8 6.98065 20.0011 7.01923 20.1951C7.05782 20.3891 7.15306 20.5673 7.29291 20.7071C7.43277 20.847 7.61095 20.9422 7.80493 20.9808C7.99891 21.0194 8.19998 20.9996 8.3827 20.9239C8.56543 20.8482 8.72161 20.72 8.83149 20.5556C8.94137 20.3911 9.00002 20.1978 9.00002 20C9.00002 19.7348 8.89466 19.4804 8.70713 19.2929C8.51959 19.1054 8.26524 19 8.00002 19V19ZM8.00002 15C7.80224 15 7.6089 15.0587 7.44445 15.1685C7.28 15.2784 7.15183 15.4346 7.07614 15.6173C7.00045 15.8 6.98065 16.0011 7.01923 16.1951C7.05782 16.3891 7.15306 16.5673 7.29291 16.7071C7.43277 16.847 7.61095 16.9422 7.80493 16.9808C7.99891 17.0194 8.19998 16.9996 8.3827 16.9239C8.56543 16.8482 8.72161 16.72 8.83149 16.5556C8.94137 16.3911 9.00002 16.1978 9.00002 16C9.00002 15.7348 8.89466 15.4804 8.70713 15.2929C8.51959 15.1054 8.26524 15 8.00002 15V15ZM16 15C15.8022 15 15.6089 15.0587 15.4444 15.1685C15.28 15.2784 15.1518 15.4346 15.0761 15.6173C15.0005 15.8 14.9806 16.0011 15.0192 16.1951C15.0578 16.3891 15.1531 16.5673 15.2929 16.7071C15.4328 16.847 15.6109 16.9422 15.8049 16.9808C15.9989 17.0194 16.2 16.9996 16.3827 16.9239C16.5654 16.8482 16.7216 16.72 16.8315 16.5556C16.9414 16.3911 17 16.1978 17 16C17 15.7348 16.8947 15.4804 16.7071 15.2929C16.5196 15.1054 16.2652 15 16 15ZM12 9C11.8022 9 11.6089 9.05865 11.4444 9.16853C11.28 9.27841 11.1518 9.43459 11.0761 9.61732C11.0005 9.80004 10.9806 10.0011 11.0192 10.1951C11.0578 10.3891 11.1531 10.5673 11.2929 10.7071C11.4328 10.847 11.6109 10.9422 11.8049 10.9808C11.9989 11.0194 12.2 10.9996 12.3827 10.9239C12.5654 10.8482 12.7216 10.72 12.8315 10.5556C12.9414 10.3911 13 10.1978 13 10C13 9.73478 12.8947 9.48043 12.7071 9.29289C12.5196 9.10536 12.2652 9 12 9ZM16 11C15.8022 11 15.6089 11.0587 15.4444 11.1685C15.28 11.2784 15.1518 11.4346 15.0761 11.6173C15.0005 11.8 14.9806 12.0011 15.0192 12.1951C15.0578 12.3891 15.1531 12.5673 15.2929 12.7071C15.4328 12.847 15.6109 12.9422 15.8049 12.9808C15.9989 13.0194 16.2 12.9996 16.3827 12.9239C16.5654 12.8482 16.7216 12.72 16.8315 12.5556C16.9414 12.3911 17 12.1978 17 12C17 11.7348 16.8947 11.4804 16.7071 11.2929C16.5196 11.1054 16.2652 11 16 11ZM18.42 6.22C17.809 4.81601 16.7545 3.65108 15.4181 2.90373C14.0817 2.15638 12.5371 1.86783 11.021 2.08231C9.50489 2.29679 8.10095 3.00245 7.02427 4.09118C5.9476 5.1799 5.25761 6.59162 5.06002 8.11C4.18743 8.32097 3.41118 8.81933 2.85615 9.52491C2.30111 10.2305 1.99957 11.1023 2.00002 12C1.99823 12.5664 2.11677 13.1268 2.34777 13.6439C2.57878 14.1611 2.91699 14.6233 3.34002 15C3.43738 15.0935 3.55266 15.1663 3.67892 15.2141C3.80518 15.2619 3.9398 15.2836 4.07467 15.2779C4.20955 15.2723 4.34188 15.2393 4.46369 15.1812C4.5855 15.123 4.69428 15.0408 4.78346 14.9394C4.87264 14.8381 4.94037 14.7197 4.98259 14.5915C5.0248 14.4633 5.04062 14.3279 5.02909 14.1934C5.01755 14.0589 4.97891 13.9281 4.91548 13.8089C4.85205 13.6898 4.76515 13.5847 4.66002 13.5C4.45032 13.3108 4.28309 13.0792 4.16933 12.8207C4.05557 12.5622 3.99787 12.2825 4.00002 12C4.00002 11.4696 4.21073 10.9609 4.58581 10.5858C4.96088 10.2107 5.46959 10 6.00002 10C6.26524 10 6.51959 9.89464 6.70713 9.70711C6.89466 9.51957 7.00002 9.26522 7.00002 9C7.00257 7.81728 7.42431 6.67375 8.19029 5.77259C8.95627 4.87142 10.0169 4.27095 11.1838 4.07788C12.3506 3.8848 13.5482 4.11161 14.5636 4.71801C15.579 5.32441 16.3466 6.27114 16.73 7.39C16.7872 7.56184 16.8899 7.71493 17.0273 7.83293C17.1647 7.95094 17.3315 8.02942 17.51 8.06C18.2042 8.17974 18.8341 8.53993 19.2893 9.07747C19.7446 9.615 19.9962 10.2956 20 11C20.0153 11.7363 19.7509 12.451 19.26 13C19.1004 13.1988 19.0227 13.4511 19.0429 13.7053C19.063 13.9594 19.1795 14.1963 19.3686 14.3674C19.5576 14.5386 19.8048 14.631 20.0597 14.6259C20.3147 14.6208 20.558 14.5186 20.74 14.34C21.2908 13.7106 21.6749 12.953 21.8572 12.1367C22.0394 11.3204 22.0139 10.4714 21.7831 9.66744C21.5523 8.86351 21.1234 8.13033 20.5359 7.53503C19.9483 6.93974 19.2209 6.50135 18.42 6.26V6.22ZM16 19C15.8022 19 15.6089 19.0587 15.4444 19.1685C15.28 19.2784 15.1518 19.4346 15.0761 19.6173C15.0005 19.8 14.9806 20.0011 15.0192 20.1951C15.0578 20.3891 15.1531 20.5673 15.2929 20.7071C15.4328 20.847 15.6109 20.9422 15.8049 20.9808C15.9989 21.0194 16.2 20.9996 16.3827 20.9239C16.5654 20.8482 16.7216 20.72 16.8315 20.5556C16.9414 20.3911 17 20.1978 17 20C17 19.7348 16.8947 19.4804 16.7071 19.2929C16.5196 19.1054 16.2652 19 16 19Z" fill="currentColor"></path>
  </symbol>
  <symbol fill="none" xmlns="http://www.w3.org/2000/svg" viewBox="0 0 24 24" id="13n">
    <path d="M12 17C11.8022 17 11.6089 17.0587 11.4444 17.1685C11.28 17.2784 11.1518 17.4346 11.0761 17.6173C11.0005 17.8 10.9806 18.0011 11.0192 18.1951C11.0578 18.3891 11.1531 18.5673 11.2929 18.7071C11.4328 18.847 11.6109 18.9422 11.8049 18.9808C11.9989 19.0194 12.2 18.9996 12.3827 18.9239C12.5654 18.8482 12.7216 18.72 12.8315 18.5556C12.9414 18.3911 13 18.1978 13 18C13 17.7348 12.8947 17.4804 12.7071 17.2929C12.5196 17.1054 12.2652 17 12 17ZM8.00002 11C7.80224 11 7.6089 11.0587 7.44445 11.1685C7.28 11.2784 7.15183 11.4346 7.07614 11.6173C7.00045 11.8 6.98065 12.0011 7.01923 12.1951C7.05782 12.3891 7.15306 12.5673 7.29291 12.7071C7.43277 12.847 7.61095 12.9422 7.80493 12.9808C7.99891 13.0194 8.19998 12.9996 8.3827 12.9239C8.56543 12.8482 8.72161 12.72 8.83149 12.5556C8.94137 12.3911 9.00002 12.1978 9.00002 12C9.00002 11.7348 8.89466 11.4804 8.70713 11.2929C8.51959 11.1054 8.26524 11 8.00002 11V11ZM12 13C11.8022 13 11.6089 13.0587 11.4444 13.1685C11.28 13.2784 11.1518 13.4346 11.0761 13.6173C11.0005 13.8 10.9806 14.0011 11.0192 14.1951C11.0578 14.3891 11.1531 14.5673 11.2929 14.7071C11.4328 14.847 11.6109 14.9422 11.8049 14.9808C11.9989 15.0194 12.2 14.9996 12.3827 14.9239C12.5654 14.8482 12.7216 14.72 12.8315 14.5556C12.9414 14.3911 13 14.1978 13 14C13 13.7348 12.8947 13.4804 12.7071 13.2929C12.5196 13.1054 12.2652 13 12 13ZM8.00002 19C7.80224 19 7.6089 19.0587 7.44445 19.1685C7.28 19.2784 7.15183 19.4346 7.07614 19.6173C7.00045 19.8 6.98065 20.0011 7.01923 20.1951C7.05782 20.3891 7.15306 20.5673 7.29291 20.7071C7.43277 20.847 7.61095 20.9422 7.80493 20.9808C7.99891 21.0194 8.19998 20.9996 8.3827 20.9239C8.56543 20.8482 8.72161 20.72 8.83149 20.5556C8.94137 20.3911 9.00002 20.1978 9.00002 20C9.00002 19.7348 8.89466 19.4804 8.70713 19.2929C8.51959 19.1054 8.26524 19 8.00002 19V19ZM8.00002 15C7.80224 15 7.6089 15.0587 7.44445 15.1685C7.28 15.2784 7.15183 15.4346 7.07614 15.6173C7.00045 15.8 6.98065 16.0011 7.01923 16.1951C7.05782 16.3891 7.15306 16.5673 7.29291 16.7071C7.43277 16.847 7.61095 16.9422 7.80493 16.9808C7.99891 17.0194 8.19998 16.9996 8.3827 16.9239C8.56543 16.8482 8.72161 16.72 8.83149 16.5556C8.94137 16.3911 9.00002 16.1978 9.00002 16C9.00002 15.7348 8.89466 15.4804 8.70713 15.2929C8.51959 15.1054 8.26524 15 8.00002 15V15ZM16 15C15.8022 15 15.6089 15.0587 15.4444 15.1685C15.28 15.2784 15.1518 15.4346 15.0761 15.6173C15.0005 15.8 14.9806 16.0011 15.0192 16.1951C15.0578 16.3891 15.1531 16.5673 15.2929 16.7071C15.4328 16.847 15.6109 16.9422 15.8049 16.9808C15.9989 17.0194 16.2 16.9996 16.3827 16.9239C16.5654 16.8482 16.7216 16.72 16.8315 16.5556C16.9414 16.3911 17 16.1978 17 16C17 15.7348 16.8947 15.4804 16.7071 15.2929C16.5196 15.1054 16.2652 15 16 15ZM12 9C11.8022 9 11.6089 9.05865 11.4444 9.16853C11.28 9.27841 11.1518 9.43459 11.0761 9.61732C11.0005 9.80004 10.9806 10.0011 11.0192 10.1951C11.0578 10.3891 11.1531 10.5673 11.2929 10.7071C11.4328 10.847 11.6109 10.9422 11.8049 10.9808C11.9989 11.0194 12.2 10.9996 12.3827 10.9239C12.5654 10.8482 12.7216 10.72 12.8315 10.5556C12.9414 10.3911 13 10.1978 13 10C13 9.73478 12.8947 9.48043 12.7071 9.29289C12.5196 9.10536 12.2652 9 12 9ZM16 11C15.8022 11 15.6089 11.0587 15.4444 11.1685C15.28 11.2784 15.1518 11.4346 15.0761 11.6173C15.0005 11.8 14.9806 12.0011 15.0192 12.1951C15.0578 12.3891 15.1531 12.5673 15.2929 12.7071C15.4328 12.847 15.6109 12.9422 15.8049 12.9808C15.9989 13.0194 16.2 12.9996 16.3827 12.9239C16.5654 12.8482 16.7216 12.72 16.8315 12.5556C16.9414 12.3911 17 12.1978 17 12C17 11.7348 16.8947 11.4804 16.7071 11.2929C16.5196 11.1054 16.2652 11 16 11ZM18.42 6.22C17.809 4.81601 16.7545 3.65108 15.4181 2.90373C14.0817 2.15638 12.5371 1.86783 11.021 2.08231C9.50489 2.29679 8.10095 3.00245 7.02427 4.09118C5.9476 5.1799 5.25761 6.59162 5.06002 8.11C4.18743 8.32097 3.41118 8.81933 2.85615 9.52491C2.30111 10.2305 1.99957 11.1023 2.00002 12C1.99823 12.5664 2.11677 13.1268 2.34777 13.6439C2.57878 14.1611 2.91699 14.6233 3.34002 15C3.43738 15.0935 3.55266 15.1663 3.67892 15.2141C3.80518 15.2619 3.9398 15.2836 4.07467 15.2779C4.20955 15.2723 4.34188 15.2393 4.46369 15.1812C4.5855 15.123 4.69428 15.0408 4.78346 14.9394C4.87264 14.8381 4.94037 14.7197 4.98259 14.5915C5.0248 14.4633 5.04062 14.3279 5.02909 14.1934C5.01755 14.0589 4.97891 13.9281 4.91548 13.8089C4.85205 13.6898 4.76515 13.5847 4.66002 13.5C4.45032 13.3108 4.28309 13.0792 4.16933 12.8207C4.05557 12.5622 3.99787 12.2825 4.00002 12C4.00002 11.4696 4.21073 10.9609 4.58581 10.5858C4.96088 10.2107 5.46959 10 6.00002 10C6.26524 10 6.51959 9.89464 6.70713 9.70711C6.89466 9.51957 7.00002 9.26522 7.00002 9C7.00257 7.81728 7.42431 6.67375 8.19029 5.77259C8.95627 4.87142 10.0169 4.27095 11.1838 4.07788C12.3506 3.8848 13.5482 4.11161 14.5636 4.71801C15.579 5.32441 16.3466 6.27114 16.73 7.39C16.7872 7.56184 16.8899 7.71493 17.0273 7.83293C17.1647 7.95094 17.3315 8.02942 17.51 8.06C18.2042 8.17974 18.8341 8.53993 19.2893 9.07747C19.7446 9.615 19.9962 10.2956 20 11C20.0153 11.7363 19.7509 12.451 19.26 13C19.1004 13.1988 19.0227 13.4511 19.0429 13.7053C19.063 13.9594 19.1795 14.1963 19.3686 14.3674C19.5576 14.5386 19.8048 14.631 20.0597 14.6259C20.3147 14.6208 20.558 14.5186 20.74 14.34C21.2908 13.7106 21.6749 12.953 21.8572 12.1367C22.0394 11.3204 22.0139 10.4714 21.7831 9.66744C21.5523 8.86351 21.1234 8.13033 20.5359 7.53503C19.9483 6.93974 19.2209 6.50135 18.42 6.26V6.22ZM16 19C15.8022 19 15.6089 19.0587 15.4444 19.1685C15.28 19.2784 15.1518 19.4346 15.0761 19.6173C15.0005 19.8 14.9806 20.0011 15.0192 20.1951C15.0578 20.3891 15.1531 20.5673 15.2929 20.7071C15.4328 20.847 15.6109 20.9422 15.8049 20.9808C15.9989 21.0194 16.2 20.9996 16.3827 20.9239C16.5654 20.8482 16.7216 20.72 16.8315 20.5556C16.9414 20.3911 17 20.1978 17 20C17 19.7348 16.8947 19.4804 16.7071 19.2929C16.5196 19.1054 16.2652 19 16 19Z" fill="currentColor"></path>
  </symbol>
  <symbol fill="none" xmlns="http://www.w3.org/2000/svg" viewBox="0 0 24 24" id="50d">
    <path d="M18.42 5.63467C17.8083 4.23048 16.753 3.06567 15.4157 2.31883C14.0785 1.57199 12.5333 1.28434 11.0169 1.49999C9.50051 1.71565 8.09671 2.42269 7.02073 3.51273C5.94475 4.60276 5.25597 6.01562 5.06001 7.53467C4.1066 7.76299 3.27023 8.3335 2.70975 9.13786C2.14927 9.94222 1.9037 10.9244 2.01968 11.8979C2.13566 12.8714 2.60511 13.7684 3.33888 14.4185C4.07265 15.0687 5.01964 15.4267 6.00001 15.4247H17C18.1994 15.4214 19.3576 14.9871 20.2634 14.201C21.1692 13.4149 21.7623 12.3293 21.9345 11.1424C22.1066 9.95547 21.8464 8.74619 21.2012 7.73513C20.5561 6.72407 19.569 5.97859 18.42 5.63467ZM17 13.4247H6.00001C5.46958 13.4247 4.96087 13.214 4.5858 12.8389C4.21073 12.4638 4.00001 11.9551 4.00001 11.4247C4.00001 10.8942 4.21073 10.3855 4.5858 10.0105C4.96087 9.63538 5.46958 9.42467 6.00001 9.42467C6.26523 9.42467 6.51958 9.31931 6.70712 9.13178C6.89466 8.94424 7.00001 8.68989 7.00001 8.42467C7.00257 7.24195 7.4243 6.09842 8.19028 5.19725C8.95627 4.29608 10.0169 3.69562 11.1838 3.50254C12.3506 3.30947 13.5481 3.53628 14.5636 4.14268C15.579 4.74908 16.3466 5.69581 16.73 6.81467C16.7887 6.98465 16.8921 7.13566 17.0294 7.25181C17.1666 7.36796 17.3327 7.44495 17.51 7.47467C18.243 7.60992 18.8994 8.0132 19.3513 8.60594C19.8033 9.19868 20.0183 9.93842 19.9547 10.6811C19.891 11.4237 19.5532 12.1161 19.007 12.6233C18.4608 13.1304 17.7453 13.4161 17 13.4247Z" fill="currentColor"></path>
    <path d="M11.2929 17.2176C11.1054 17.4051 11 17.6595 11 17.9247C11 18.1899 11.1054 18.4442 11.2929 18.6318C11.4804 18.8193 11.7348 18.9247 12 18.9247H21C21.2652 18.9247 21.5196 18.8193 21.7071 18.6318C21.8946 18.4442 22 18.1899 22 17.9247C22 17.6595 21.8946 17.4051 21.7071 17.2176C21.5196 17.03 21.2652 16.9247 21 16.9247H12C11.7348 16.9247 11.4804 17.03 11.2929 17.2176Z" fill="currentColor"></path>
    <path d="M2.29289 21.2176C2.10536 21.4051 2 21.6595 2 21.9247C2 22.1899 2.10536 22.4442 2.29289 22.6318C2.48043 22.8193 2.73478 22.9247 3 22.9247H14C14.2652 22.9247 14.5196 22.8193 14.7071 22.6318C14.8946 22.4442 15 22.1899 15 21.9247C15 21.6595 14.8946 21.4051 14.7071 21.2176C14.5196 21.03 14.2652 20.9247 14 20.9247H3C2.73478 20.9247 2.48043 21.03 2.29289 21.2176Z" fill="currentColor"></path>
    <path d="M16.2929 21.2176C16.4804 21.03 16.7348 20.9247 17 20.9247H19C19.2652 20.9247 19.5196 21.03 19.7071 21.2176C19.8946 21.4051 20 21.6595 20 21.9247C20 22.1899 19.8946 22.4442 19.7071 22.6318C19.5196 22.8193 19.2652 22.9247 19 22.9247H17C16.7348 22.9247 16.4804 22.8193 16.2929 22.6318C16.1054 22.4442 16 22.1899 16 21.9247C16 21.6595 16.1054 21.4051 16.2929 21.2176Z" fill="currentColor"></path>
    <path d="M4.29289 17.2176C4.48043 17.03 4.73478 16.9247 5 16.9247H9C9.26522 16.9247 9.51957 17.03 9.70711 17.2176C9.89464 17.4051 10 17.6595 10 17.9247C10 18.1899 9.89464 18.4442 9.70711 18.6318C9.51957 18.8193 9.26522 18.9247 9 18.9247H5C4.73478 18.9247 4.48043 18.8193 4.29289 18.6318C4.10536 18.4442 4 18.1899 4 17.9247C4 17.6595 4.10536 17.4051 4.29289 17.2176Z" fill="currentColor"></path>
  </symbol>
  <symbol fill="none" xmlns="http://www.w3.org/2000/svg" viewBox="0 0 24 24" id="50n">
    <path d="M18.42 5.63467C17.8083 4.23048 16.753 3.06567 15.4157 2.31883C14.0785 1.57199 12.5333 1.28434 11.0169 1.49999C9.50051 1.71565 8.09671 2.42269 7.02073 3.51273C5.94475 4.60276 5.25597 6.01562 5.06001 7.53467C4.1066 7.76299 3.27023 8.3335 2.70975 9.13786C2.14927 9.94222 1.9037 10.9244 2.01968 11.8979C2.13566 12.8714 2.60511 13.7684 3.33888 14.4185C4.07265 15.0687 5.01964 15.4267 6.00001 15.4247H17C18.1994 15.4214 19.3576 14.9871 20.2634 14.201C21.1692 13.4149 21.7623 12.3293 21.9345 11.1424C22.1066 9.95547 21.8464 8.74619 21.2012 7.73513C20.5561 6.72407 19.569 5.97859 18.42 5.63467ZM17 13.4247H6.00001C5.46958 13.4247 4.96087 13.214 4.5858 12.8389C4.21073 12.4638 4.00001 11.9551 4.00001 11.4247C4.00001 10.8942 4.21073 10.3855 4.5858 10.0105C4.96087 9.63538 5.46958 9.42467 6.00001 9.42467C6.26523 9.42467 6.51958 9.31931 6.70712 9.13178C6.89466 8.94424 7.00001 8.68989 7.00001 8.42467C7.00257 7.24195 7.4243 6.09842 8.19028 5.19725C8.95627 4.29608 10.0169 3.69562 11.1838 3.50254C12.3506 3.30947 13.5481 3.53628 14.5636 4.14268C15.579 4.74908 16.3466 5.69581 16.73 6.81467C16.7887 6.98465 16.8921 7.13566 17.0294 7.25181C17.1666 7.36796 17.3327 7.44495 17.51 7.47467C18.243 7.60992 18.8994 8.0132 19.3513 8.60594C19.8033 9.19868 20.0183 9.93842 19.9547 10.6811C19.891 11.4237 19.5532 12.1161 19.007 12.6233C18.4608 13.1304 17.7453 13.4161 17 13.4247Z" fill="currentColor"></path>
    <path d="M11.2929 17.2176C11.1054 17.4051 11 17.6595 11 17.9247C11 18.1899 11.1054 18.4442 11.2929 18.6318C11.4804 18.8193 11.7348 18.9247 12 18.9247H21C21.2652 18.9247 21.5196 18.8193 21.7071 18.6318C21.8946 18.4442 22 18.1899 22 17.9247C22 17.6595 21.8946 17.4051 21.7071 17.2176C21.5196 17.03 21.2652 16.9247 21 16.9247H12C11.7348 16.9247 11.4804 17.03 11.2929 17.2176Z" fill="currentColor"></path>
    <path d="M2.29289 21.2176C2.10536 21.4051 2 21.6595 2 21.9247C2 22.1899 2.10536 22.4442 2.29289 22.6318C2.48043 22.8193 2.73478 22.9247 3 22.9247H14C14.2652 22.9247 14.5196 22.8193 14.7071 22.6318C14.8946 22.4442 15 22.1899 15 21.9247C15 21.6595 14.8946 21.4051 14.7071 21.2176C14.5196 21.03 14.2652 20.9247 14 20.9247H3C2.73478 20.9247 2.48043 21.03 2.29289 21.2176Z" fill="currentColor"></path>
    <path d="M16.2929 21.2176C16.4804 21.03 16.7348 20.9247 17 20.9247H19C19.2652 20.9247 19.5196 21.03 19.7071 21.2176C19.8946 21.4051 20 21.6595 20 21.9247C20 22.1899 19.8946 22.4442 19.7071 22.6318C19.5196 22.8193 19.2652 22.9247 19 22.9247H17C16.7348 22.9247 16.4804 22.8193 16.2929 22.6318C16.1054 22.4442 16 22.1899 16 21.9247C16 21.6595 16.1054 21.4051 16.2929 21.2176Z" fill="currentColor"></path>
    <path d="M4.29289 17.2176C4.48043 17.03 4.73478 16.9247 5 16.9247H9C9.26522 16.9247 9.51957 17.03 9.70711 17.2176C9.89464 17.4051 10 17.6595 10 17.9247C10 18.1899 9.89464 18.4442 9.70711 18.6318C9.51957 18.8193 9.26522 18.9247 9 18.9247H5C4.73478 18.9247 4.48043 18.8193 4.29289 18.6318C4.10536 18.4442 4 18.1899 4 17.9247C4 17.6595 4.10536 17.4051 4.29289 17.2176Z" fill="currentColor"></path>
  </symbol>
</svg>