<svg width="0" height="0" class="hidden">
  <symbol fill="none" xmlns="http://www.w3.org/2000/svg" viewBox="0 0 24 24" id="logo-mono">
    <path fill-rule="evenodd" clip-rule="evenodd" d="M3.93455 10.0934C3.88535 10.1129 3.83903 10.141 3.79823 10.177C3.68879 10.2737 3.63191 10.417 3.64511 10.5626C3.64511 10.5626 4.24967 17.2001 4.52087 20.1775C4.61543 21.216 5.48615 22.0109 6.52895 22.0109H14.7614C15.3713 22.0109 15.9223 21.739 16.2936 21.3053C16.7052 21.7363 17.1962 21.9905 17.7382 22.0082L17.7994 22.0092C17.9647 22.0092 18.1229 21.9722 18.2652 21.9055C18.4073 21.9722 18.5654 22.0092 18.7308 22.0092L18.792 22.0082C19.4196 21.9878 19.9795 21.6499 20.4259 21.0871C21.023 20.3342 21.419 19.1604 21.5145 17.9774C21.5145 17.977 21.5145 17.9765 21.5145 17.9762C21.5628 17.358 21.3509 16.7479 20.9299 16.2926C20.509 15.8374 19.9171 15.5786 19.297 15.5786C19.297 15.5786 19.2967 15.5786 19.2965 15.5786C19.1237 15.5786 18.9533 15.5988 18.7881 15.6372C18.8635 15.2594 19.0133 14.9086 19.2823 14.6448C19.4628 14.4679 19.4657 14.178 19.289 13.9978C19.1122 13.8173 18.8222 13.8142 18.6418 13.991C18.1942 14.4295 17.9542 15.0317 17.8582 15.6677C17.6573 15.6094 17.4473 15.5786 17.2337 15.5786C17.2334 15.5786 17.2332 15.5786 17.2332 15.5786C17.2181 15.5786 17.2032 15.5789 17.1883 15.5791L17.6453 10.5626C17.6587 10.4155 17.6004 10.271 17.489 10.1741C17.4334 10.1261 17.3681 10.0925 17.2987 10.0752C17.4089 9.80976 17.4696 9.51864 17.4696 9.2136C17.4696 8.724 17.3134 8.27088 17.0477 7.90128C17.629 7.49376 18.0094 6.81888 18.0094 6.05592C18.0094 4.95648 17.2198 4.03992 16.1772 3.84312C15.9804 2.80056 15.0638 2.01096 13.9644 2.01096C12.9802 2.01096 12.1428 2.64384 11.8366 3.5244C10.6788 3.61536 9.76607 4.58376 9.76343 5.76432C9.48119 5.8392 9.21311 5.94888 8.96447 6.0888L8.79143 5.44272C8.78999 5.43696 8.78831 5.4312 8.78663 5.42544L8.45711 4.19568C8.25479 3.4404 7.76087 2.79672 7.08383 2.406C6.40679 2.01504 5.60231 1.9092 4.84727 2.11152C4.09223 2.31384 3.44831 2.80776 3.05759 3.4848C2.66663 4.1616 2.56079 4.96632 2.76311 5.72136L3.93455 10.0934V10.0934ZM16.6565 20.2874C16.7088 20.3688 16.7638 20.4458 16.8211 20.5183C17.0923 20.8598 17.4154 21.0941 17.7991 21.0941H17.7994C17.851 21.0941 17.8982 21.0722 17.9316 21.0367C18.018 20.9448 18.1387 20.8925 18.2649 20.8925C18.3914 20.8925 18.5119 20.9448 18.5986 21.0367C18.6319 21.0722 18.6792 21.0941 18.7308 21.0941H18.731C19.1148 21.0941 19.4378 20.8598 19.709 20.5183C20.2097 19.8871 20.5219 18.8964 20.6021 17.9045C20.6304 17.5409 20.5058 17.1818 20.2579 16.914C20.0102 16.6462 19.662 16.494 19.297 16.494H19.2965C19.019 16.494 18.7519 16.5811 18.5306 16.7388C18.5179 16.7479 18.5047 16.7563 18.4913 16.7638L18.4884 16.7654C18.4236 16.8019 18.3492 16.8228 18.2698 16.8238H18.2681H18.2649H18.2621H18.2604C18.181 16.8228 18.1066 16.8019 18.0418 16.7654L18.0389 16.7638C18.0254 16.7563 18.0122 16.7479 17.9995 16.7388C17.7782 16.5811 17.5111 16.494 17.2337 16.494H17.2332C16.8682 16.494 16.5199 16.6462 16.272 16.914C16.0243 17.1818 15.8998 17.5409 15.9281 17.9045C15.9955 18.7404 16.2278 19.5754 16.5989 20.195C16.6217 20.2236 16.6411 20.2546 16.6565 20.2874ZM12.8338 11.6486C10.0949 11.8445 7.35551 11.6412 4.61615 11.0969L5.43575 20.0942C5.48711 20.6594 5.96135 21.0924 6.52895 21.0924H14.7614C15.1774 21.0924 15.5434 20.8601 15.7294 20.5133C15.3425 19.8002 15.0895 18.8916 15.0156 17.9774C15.0156 17.977 15.0156 17.9765 15.0156 17.9762C14.9674 17.358 15.1793 16.7479 15.6002 16.2926C15.786 16.0918 16.0049 15.9293 16.2449 15.8102L16.4858 13.1645L16.6733 11.107C16.5398 11.1353 16.4064 11.1626 16.273 11.1888C16.2468 11.1965 16.2204 11.2015 16.1938 11.2044C15.139 11.4091 14.0842 11.5512 13.0296 11.634C12.966 11.653 12.899 11.6578 12.8338 11.6486V11.6486ZM7.52279 16.7155C7.52279 16.7155 7.56167 16.7544 7.62479 16.8175C7.97735 17.1701 8.45567 17.3683 8.95439 17.3683C9.45311 17.3683 9.93143 17.1701 10.2842 16.8175C10.3586 16.7431 10.4054 16.6961 10.4054 16.6961C10.6102 16.4914 10.6102 16.1592 10.4054 15.9545C10.201 15.75 9.86855 15.75 9.66407 15.9545L9.54263 16.0759C9.38663 16.2319 9.17519 16.3195 8.95439 16.3195C8.73383 16.3195 8.52239 16.2319 8.36639 16.0759C8.30327 16.0128 8.26439 15.9739 8.26439 15.9739C8.05967 15.7692 7.72751 15.7692 7.52279 15.9739C7.31807 16.1786 7.31807 16.5108 7.52279 16.7155ZM7.63007 13.3344C7.99847 13.3344 8.29751 13.6334 8.29751 14.0018C8.29751 14.3702 7.99847 14.6693 7.63007 14.6693C7.26191 14.6693 6.96287 14.3702 6.96287 14.0018C6.96287 13.6334 7.26191 13.3344 7.63007 13.3344ZM10.2982 13.3344C10.6666 13.3344 10.9656 13.6334 10.9656 14.0018C10.9656 14.3702 10.6666 14.6693 10.2982 14.6693C9.92975 14.6693 9.63071 14.3702 9.63071 14.0018C9.63071 13.6334 9.92975 13.3344 10.2982 13.3344ZM12.5357 10.7479C12.9259 10.3044 13.1628 9.72264 13.1628 9.08616C13.1628 7.69656 12.0348 6.56856 10.6452 6.56856C10.1134 6.56856 9.61967 6.73392 9.21287 7.01592L9.31559 7.3992C9.31727 7.40496 9.31871 7.41048 9.32015 7.41624L10.2262 10.7974C10.9961 10.8122 11.766 10.7964 12.5357 10.7479V10.7479ZM7.74671 5.09376L7.56983 4.43328C7.43063 3.91368 7.09055 3.4704 6.62447 3.20136C6.15863 2.93232 5.60471 2.8596 5.08511 2.9988C4.56527 3.138 4.12223 3.47808 3.85319 3.94392C3.58415 4.41 3.51119 4.96392 3.65039 5.48352L4.91975 10.2204C6.36839 10.5024 7.81703 10.6865 9.26591 10.7628L8.52191 7.986H5.93807C5.68463 7.986 5.47871 7.78032 5.47871 7.52688C5.47871 7.2732 5.68463 7.06752 5.93807 7.06752H8.27567L8.24879 6.96672C8.24759 6.96288 8.24639 6.9588 8.24543 6.95472L7.99295 6.01248H5.40935C5.15567 6.01248 4.94999 5.80656 4.94999 5.55312C4.94999 5.29968 5.15567 5.09376 5.40935 5.09376H7.74671V5.09376ZM15.9746 10.3111C16.3226 10.0704 16.5511 9.6684 16.5511 9.2136C16.5511 8.77344 16.3375 8.3832 16.0085 8.14008C15.869 8.03712 15.7994 7.86408 15.8287 7.6932C15.858 7.52208 15.9814 7.38216 16.1472 7.33152C16.6932 7.16448 17.0906 6.6564 17.0906 6.05592C17.0906 5.32272 16.4978 4.72704 15.7687 4.72248H15.7572C15.5035 4.72248 15.2978 4.5168 15.2978 4.26312C15.2978 3.52704 14.7005 2.92968 13.9644 2.92968C13.2989 2.92968 12.7464 3.41808 12.6468 4.056C12.6094 4.29672 12.3905 4.4664 12.1478 4.4424C12.1044 4.43808 12.0602 4.43592 12.0154 4.43592C11.3196 4.43592 10.7477 4.96992 10.6872 5.65008C11.9592 5.66544 13.0658 6.3732 13.6471 7.4136C13.6954 6.6384 13.6716 5.98992 13.6716 5.72568C13.6716 5.472 13.8773 5.26632 14.1307 5.26632C14.3844 5.26632 14.5901 5.472 14.5901 5.72568C14.5901 6.1608 14.646 7.5816 14.3842 8.95728C14.2714 9.54936 14.0976 10.1306 13.8442 10.6339C14.5543 10.555 15.2645 10.4477 15.9746 10.3111V10.3111Z" fill="currentColor"/>
  </symbol>
  </svg>